<?xml version="1.0" encoding="UTF-8" standalone="no"?>
<!DOCTYPE svg PUBLIC "-//W3C//DTD SVG 1.1//EN" "http://www.w3.org/Graphics/SVG/1.1/DTD/svg11.dtd">
<svg width="100%" height="100%" viewBox="0 0 1402 631" version="1.1" xmlns="http://www.w3.org/2000/svg" xmlns:xlink="http://www.w3.org/1999/xlink" xml:space="preserve" xmlns:serif="http://www.serif.com/" style="fill-rule:evenodd;clip-rule:evenodd;stroke-linecap:round;stroke-linejoin:round;stroke-miterlimit:1.5;">
    <path d="M651.479,272.561L634.206,271.553L628.236,278.37L620.121,278.241L609.206,271.575L598.292,269.964L591.77,260.349L575.396,260.49L565.761,258.451L555.934,254.359" style="fill:none;stroke:rgb(255,0,42);stroke-width:4px;"/>
    <path d="M543.572,272.878L356.543,271.1L350.172,268.72L343.499,268.009L334.401,263.367L328.289,261.514L318.077,261.923" style="fill:none;stroke:rgb(255,0,42);stroke-width:4px;"/>
    <path d="M1099.74,352.51L1099.7,349.926L1102.43,349.699L1102.51,351.693" style="fill:none;stroke:rgb(255,0,42);stroke-width:4px;"/>
    <path d="M796.365,269.148L805.027,270.254L821.092,276.092L831.48,276.637L846.015,273.347L852.009,275.963L878.916,276.74L883.066,271.398L914.819,270.871L958.21,271.139L1021.8,271.007" style="fill:none;stroke:rgb(255,0,42);stroke-width:4px;"/>
    <path d="M1069.37,281.556L1072.33,282.315L1075.23,282.342L1080.44,276.311L1089.99,280.229L1098.17,280.864L1101.38,278.478L1106.75,278.393L1112,279.889L1120.72,279.3L1126.99,277.314L1131.91,274.47L1139.2,273.21L1152.13,269.4" style="fill:none;stroke:rgb(255,0,42);stroke-width:4px;"/>
    <path d="M794.535,271.914L795.432,562.149" style="fill:none;stroke:rgb(255,0,42);stroke-width:4px;"/>
    <path d="M614.384,166.15L617.132,170.579L620.201,171.125L623.623,170.353L626.274,166.851" style="fill:none;stroke:rgb(255,0,42);stroke-width:4px;"/>
    <path d="M797.542,172.781L799.359,175.953L801.856,177.165L806.616,177.043L808.973,176.454L810.848,174.096L811.562,172.183" style="fill:none;stroke:rgb(255,0,42);stroke-width:4px;"/>
    <path d="M272.252,471.868L272.252,466.613L274.791,463.506L279.021,461.544L284.255,462.589L287.791,465.424L289.365,470.361" style="fill:none;stroke:rgb(255,0,42);stroke-width:4px;"/>
</svg>
