<?xml version="1.0" encoding="UTF-8" standalone="no"?>
<!DOCTYPE svg PUBLIC "-//W3C//DTD SVG 1.1//EN" "http://www.w3.org/Graphics/SVG/1.1/DTD/svg11.dtd">
<svg width="100%" height="100%" viewBox="0 0 1402 631" version="1.1" xmlns="http://www.w3.org/2000/svg" xmlns:xlink="http://www.w3.org/1999/xlink" xml:space="preserve" xmlns:serif="http://www.serif.com/" style="fill-rule:evenodd;clip-rule:evenodd;stroke-linecap:round;stroke-linejoin:round;stroke-miterlimit:1.5;">
    <g id="PIN-1" serif:id="PIN 1">
        <g id="_85" serif:id="85" transform="matrix(1,0,0,1,0,-1)">
            <path d="M542.503,272.891L354.418,270.217L348.473,267.772" style="fill:none;stroke:rgb(255,0,24);stroke-width:3px;"/>
        </g>
        <path id="_18" serif:id="18" d="M592.838,259.352L583.34,260.355L564.871,259.196L558.558,260.942L554.073,254.231L546.034,254.113" style="fill:none;stroke:rgb(255,0,24);stroke-width:3px;"/>
        <path id="_16" serif:id="16" d="M633.394,272.419L626.048,280.422L616.381,276.671L610.587,272.067L600.054,270.449" style="fill:none;stroke:rgb(255,0,24);stroke-width:3px;"/>
        <path id="_8" serif:id="8" d="M634.212,271.8L652.134,271.706" style="fill:none;stroke:rgb(255,0,24);stroke-width:3px;"/>
        <path id="_3" serif:id="3" d="M680.395,289.375L671.435,289.375" style="fill:none;stroke:rgb(255,0,24);stroke-width:3px;"/>
        <path id="_20" serif:id="20" d="M767.283,289.375L721.139,288.921" style="fill:none;stroke:rgb(255,0,24);stroke-width:3px;"/>
        <g id="_66" serif:id="66" transform="matrix(1,0,0,1,7.41445,-0.127275)">
            <path d="M763.528,463.496L763.528,353.733" style="fill:none;stroke:rgb(255,0,24);stroke-width:3px;"/>
        </g>
        <path id="_10" serif:id="10" d="M733.081,503.683L763.528,503.345" style="fill:none;stroke:rgb(255,0,24);stroke-width:3px;"/>
        <path id="_13" serif:id="13" d="M732.991,528.109L733.081,503.683" style="fill:none;stroke:rgb(255,0,24);stroke-width:3px;"/>
    </g>
    <g id="PIN-0" serif:id="PIN 0">
        <path id="_29" serif:id="29" d="M1075.23,282.342L1080.44,276.311L1089.99,280.229L1098.17,280.864L1101.38,278.478L1106.75,278.393L1112,279.889L1120.72,279.3L1126.99,277.314L1131.91,274.47L1139.2,273.21" style="fill:none;stroke:rgb(255,0,24);stroke-width:3px;"/>
        <path id="_77" serif:id="77" d="M883.066,271.398L914.819,270.871L958.21,271.139L1068.2,271.007" style="fill:none;stroke:rgb(255,0,24);stroke-width:3px;"/>
        <path id="_38" serif:id="38" d="M796.365,269.148L805.027,270.254L821.092,276.092L831.48,276.637L846.015,273.347L852.009,275.963L878.916,276.74" style="fill:none;stroke:rgb(255,0,24);stroke-width:3px;"/>
        <path id="_7" serif:id="7" d="M774.133,272.878L794.538,272.878" style="fill:none;stroke:rgb(255,0,24);stroke-width:3px;"/>
        <g id="_84" serif:id="84" transform="matrix(0.999997,-0.000984758,-0.000984758,0.681312,0.255608,82.7199)">
            <path d="M794.535,271.914L795.432,562.149" style="fill:none;stroke:rgb(255,0,24);stroke-width:3.51px;"/>
        </g>
    </g>
</svg>
