<?xml version="1.0" encoding="UTF-8" standalone="no"?>
<!DOCTYPE svg PUBLIC "-//W3C//DTD SVG 1.1//EN" "http://www.w3.org/Graphics/SVG/1.1/DTD/svg11.dtd">
<svg width="100%" height="100%" viewBox="0 0 500 500" version="1.1" xmlns="http://www.w3.org/2000/svg" xmlns:xlink="http://www.w3.org/1999/xlink" xml:space="preserve" xmlns:serif="http://www.serif.com/" style="fill-rule:evenodd;clip-rule:evenodd;stroke-linecap:round;stroke-linejoin:round;stroke-miterlimit:1.5;">
    <path id="line" d="M158.889,215.324L208.112,183.287L260.766,167.67L325.995,198.666L358.066,296.506L306.383,323.686L219.997,317.98L173.618,243.338" style="fill:none;stroke:black;stroke-width:5.5px;"/>
    <path d="M179.554,184.735L153.701,163.224L230.974,155.745L283.47,141.054L307.906,127.83L336.345,96.791L379.676,96.791L395.766,141.247L385.624,219.293" style="fill:none;stroke:black;stroke-width:5.5px;"/>
    <path d="M193.741,67.471L232.448,107.914L359.415,43.623L412.157,68.363L433.89,121.561" style="fill:none;stroke:black;stroke-width:5.5px;"/>
    <path d="M437.836,176.922L423.538,239.499L373.263,253.551L357.076,218.885L356.686,147.042" style="fill:none;stroke:black;stroke-width:5.5px;"/>
    <path d="M72.779,197.835L62.758,151.227L29.731,118.84L52.523,78.67L88.261,40.071" style="fill:none;stroke:black;stroke-width:5.5px;"/>
    <path d="M154.125,42.744L138.968,74.068L90.701,91.555L115.63,127.077L101.694,180.431" style="fill:none;stroke:black;stroke-width:5.5px;"/>
</svg>
