<?xml version="1.0" encoding="UTF-8" standalone="no"?>
<svg
   version="1.1"
   width="567"
   height="567"
   id="svg28"
   sodipodi:docname="hand-on-wall.svg"
   inkscape:version="1.2.2 (732a01da63, 2022-12-09)"
   xml:space="preserve"
   xmlns:inkscape="http://www.inkscape.org/namespaces/inkscape"
   xmlns:sodipodi="http://sodipodi.sourceforge.net/DTD/sodipodi-0.dtd"
   xmlns:xlink="http://www.w3.org/1999/xlink"
   xmlns="http://www.w3.org/2000/svg"
   xmlns:svg="http://www.w3.org/2000/svg"><sodipodi:namedview
     id="namedview28"
     pagecolor="#ffffff"
     bordercolor="#000000"
     borderopacity="0.25"
     inkscape:showpageshadow="2"
     inkscape:pageopacity="0.0"
     inkscape:pagecheckerboard="0"
     inkscape:deskcolor="#d1d1d1"
     inkscape:zoom="1.003917"
     inkscape:cx="478.62521"
     inkscape:cy="198.22355"
     inkscape:window-width="2560"
     inkscape:window-height="1334"
     inkscape:window-x="-11"
     inkscape:window-y="-11"
     inkscape:window-maximized="1"
     inkscape:current-layer="svg28"
     showgrid="false" /><defs
     id="defs1" /><path
     id="rect28"
     style="display:inline;fill:none;stroke:#000000;stroke-width:2.26772;stroke-linecap:round;stroke-linejoin:round"
     d="M 24.566467,24.566467 H 542.43353 V 542.43353 H 24.566467 Z" /><image
     width="275.4917"
     height="432.07816"
     preserveAspectRatio="none"
     xlink:href="hand.png"
     id="image771"
     x="145.94402"
     y="55.082836"
     style="display:none" /><path
     style="display:none;fill:none;stroke:#010000;stroke-width:3.77953;stroke-dasharray:none;stroke-opacity:1"
     d="m 264.51019,477.37901 c -0.40452,-0.0498 -0.74337,-0.23174 -0.81506,-0.4375 -0.66691,-1.91419 -1.38399,-3.60143 -1.48688,-3.49854 -0.0697,0.0698 -0.2724,-0.15024 -0.45033,-0.48887 -0.70516,-1.34208 -6.47365,-7.05769 -11.50519,-11.3997 -0.64316,-0.55502 -1.45199,-1.26657 -1.7974,-1.58123 -0.75165,-0.68469 -4.76113,-3.85969 -7.95492,-6.29926 -1.26651,-0.96742 -2.34985,-1.81376 -2.40742,-1.88077 -0.0576,-0.067 -1.01794,-0.90117 -2.13416,-1.85371 -1.79502,-1.5318 -3.9259,-3.73025 -5.10823,-5.2702 -0.21919,-0.2855 -1.30289,-1.46304 -2.40822,-2.61675 -1.78063,-1.85861 -3.32848,-3.80759 -3.32848,-4.1911 0,-0.0736 -0.26751,-0.52768 -0.59447,-1.00898 -0.32696,-0.48129 -0.90531,-1.46385 -1.28521,-2.18346 -0.3799,-0.7196 -0.77181,-1.30837 -0.87091,-1.30837 -0.0991,0 -0.18017,-0.14131 -0.18017,-0.31401 0,-0.17271 -0.0942,-0.31401 -0.20934,-0.31401 -0.11514,0 -0.19819,-0.0707 -0.18455,-0.15701 0.0749,-0.47443 -0.0522,-0.89746 -0.23561,-0.7841 -0.11595,0.0716 -0.26465,-0.0405 -0.33043,-0.24933 -0.29313,-0.93026 -1.05809,-2.52791 -1.49427,-3.1208 -0.26211,-0.35628 -0.47656,-0.75664 -0.47656,-0.8897 0,-0.13305 -0.0837,-0.24191 -0.18609,-0.24191 -0.10234,0 -0.1817,-0.11775 -0.17636,-0.26167 0.0294,-0.79102 -0.0723,-1.03299 -0.38393,-0.91342 -0.25092,0.0963 -0.29692,0.0288 -0.19634,-0.28811 0.0916,-0.28877 -0.0446,-0.58898 -0.45074,-0.99307 -0.32015,-0.31853 -0.58742,-0.81748 -0.59394,-1.10875 -0.007,-0.29126 -0.2058,-0.80937 -0.44287,-1.15137 -0.23706,-0.34198 -0.72712,-1.26366 -1.08902,-2.04817 -0.36191,-0.78452 -0.85739,-1.70639 -1.10107,-2.04862 -0.24369,-0.34223 -0.46017,-0.73658 -0.48106,-0.87636 -0.0209,-0.13976 -0.33155,-0.68015 -0.69035,-1.20086 -0.3588,-0.52071 -0.80119,-1.27434 -0.98308,-1.67472 -0.18189,-0.40039 -0.99027,-1.71711 -1.7964,-2.92605 -0.80613,-1.20894 -1.53374,-2.33938 -1.6169,-2.51209 -0.0832,-0.1727 -0.6745,-1.11436 -1.31407,-2.09258 -1.29364,-1.97858 -1.28799,-1.96966 -2.31424,-3.65163 -0.40298,-0.66044 -0.87399,-1.41242 -1.0467,-1.67101 -0.1727,-0.25862 -0.62511,-0.98041 -1.00534,-1.60399 -0.38024,-0.62358 -1.34961,-2.07582 -2.15417,-3.22719 -0.80456,-1.15137 -1.62096,-2.32891 -1.81423,-2.61675 -0.78954,-1.17593 -3.55038,-4.79971 -4.64103,-6.09165 -2.97351,-3.5223 -6.29508,-8.21043 -6.29508,-8.88497 0,-0.0359 -0.31655,-0.75515 -0.70345,-1.59831 -0.38689,-0.84314 -0.82334,-1.90981 -0.96987,-2.37036 -0.14654,-0.46055 -0.67781,-1.70038 -1.18062,-2.75521 -0.5028,-1.0548 -0.91563,-2.18524 -0.91739,-2.51208 -0.002,-0.38787 -0.0625,-0.50076 -0.17397,-0.32511 -0.15933,0.25113 -0.71726,-1.11289 -0.63982,-1.56423 0.0669,-0.38987 -0.0399,-0.68328 -0.36833,-1.01168 -0.23843,-0.23843 -0.27486,-0.39314 -0.11572,-0.49148 0.15054,-0.0931 0.16361,-0.25207 0.0372,-0.45203 -0.13188,-0.20853 -0.19613,-0.2237 -0.19829,-0.0468 -0.002,0.14392 -0.10749,0.26167 -0.23495,0.26167 -0.12745,0 -0.17415,-0.15005 -0.10377,-0.33345 0.36192,-0.94316 0.3799,-1.46557 0.0358,-1.03959 -0.32495,0.40225 -0.32844,0.40225 -0.34548,0 -0.009,-0.22349 -0.0588,-0.68896 -0.1096,-1.03437 -0.0693,-0.4711 -0.0396,-0.54956 0.11868,-0.31401 0.11609,0.17271 0.2125,0.23716 0.21427,0.14325 0.005,-0.28539 -0.46357,-1.06834 -0.81602,-1.36249 -0.29235,-0.244 -0.27571,-0.26515 0.13887,-0.1766 0.25905,0.0553 0.47101,0.0153 0.47101,-0.0891 0,-0.10436 -0.14765,-0.18975 -0.32812,-0.18975 -0.23285,0 -0.28953,-0.12156 -0.19523,-0.41868 0.1637,-0.51577 -0.064,-1.30591 -0.32908,-1.14206 -0.10685,0.066 -0.19427,-0.0739 -0.19427,-0.31097 0,-0.23706 -0.0942,-0.43103 -0.20934,-0.43103 -0.11514,0 -0.20934,-0.15284 -0.20934,-0.33964 0,-0.27817 0.0568,-0.29249 0.31401,-0.079 0.37466,0.31093 0.45117,-0.30118 0.10467,-0.83736 -0.17068,-0.26413 -0.20344,-0.25173 -0.20614,0.078 -0.003,0.32462 -0.0572,0.34719 -0.31721,0.13138 -0.40229,-0.33388 -0.40229,-0.62802 0,-0.62802 0.1727,0 0.31401,-0.14131 0.31401,-0.31401 0,-0.17271 -0.0811,-0.31401 -0.18031,-0.31401 -0.0992,0 -0.13529,-0.23551 -0.0803,-0.52335 0.0579,-0.30282 0.003,-0.52335 -0.13123,-0.52335 -0.1272,0 -0.21366,-0.16486 -0.19213,-0.36635 0.085,-0.7952 -0.31275,-2.97114 -0.51969,-2.84324 -0.13454,0.0831 -0.1711,-0.0881 -0.0992,-0.4645 0.0627,-0.32791 0.0128,-0.83646 -0.11077,-1.13015 -0.27546,-0.65439 -0.38398,-1.33634 -0.37649,-2.36567 0.004,-0.48204 -0.0934,-0.78626 -0.25116,-0.78823 -0.20184,-0.003 -0.20156,-0.0384 0.001,-0.16722 0.20384,-0.12947 0.19717,-0.51445 -0.0317,-1.82852 -0.15946,-0.91549 -0.24654,-1.73516 -0.19352,-1.82151 0.053,-0.0864 0.0258,-0.27131 -0.0606,-0.411 -0.0863,-0.13969 -0.18864,-0.58716 -0.22734,-0.99436 -0.0387,-0.40721 -0.16683,-1.494 -0.28474,-2.4151 -0.39785,-3.10807 -0.72902,-7.25613 -0.63292,-7.92757 0.0994,-0.69427 -0.61678,-6.27107 -0.95784,-7.45893 -0.78181,-2.72287 -1.73319,-5.68357 -1.9667,-6.12036 -0.10688,-0.19994 -0.19433,-0.46224 -0.19433,-0.58291 0,-0.12064 -0.43343,-1.32303 -0.96317,-2.67191 -0.52967,-1.3489 -1.20112,-3.06486 -1.49205,-3.81326 -0.84981,-2.18614 -1.45694,-3.45897 -2.35505,-4.93728 -0.46301,-0.76215 -0.84184,-1.5653 -0.84184,-1.78478 0,-0.21949 -0.41541,-1.83486 -0.92313,-3.58972 -1.20542,-4.16631 -4.02621,-15.44388 -5.22257,-20.8799 -1.87578,-8.52317 -2.92075,-12.67248 -4.22542,-16.77817 -1.06456,-3.35006 -1.82436,-6.40253 -2.18084,-8.76134 -0.1305,-0.86353 -0.28854,-1.89976 -0.35121,-2.30274 -0.14235,-0.91542 -1.04195,-5.78369 -1.35393,-7.32691 -0.3778,-1.86882 0.17987,-5.87551 1.04198,-7.48638 0.71591,-1.33769 4.83387,-4.15082 8.50496,-5.81007 l 2.72143,-1.23001 2.51208,0.009 c 1.38164,0.005 2.88889,0.11222 3.34944,0.2385 6.0648,1.66287 8.47937,2.8724 12.56041,6.2919 2.18262,1.82882 1.94037,1.58951 4.48282,4.42837 1.08272,1.20894 2.26898,2.53172 2.63613,2.93952 1.19444,1.32666 2.07323,2.57378 3.53709,5.01961 0.79109,1.32176 1.75516,2.89019 2.14238,3.48538 0.38721,0.5952 0.70403,1.13521 0.70403,1.20002 0,0.0648 0.36135,0.70827 0.803,1.42991 2.40966,3.93726 5.90648,11.45338 8.20715,17.6406 1.18776,3.19423 1.58505,4.12218 3.18181,7.43157 0.5833,1.20894 1.79537,3.72031 2.69349,5.5808 3.44252,7.13136 4.62754,11.45491 6.27367,22.88947 0.61013,4.23811 3.04774,11.10035 3.94005,11.09183 0.29317,-0.003 0.29591,-0.0289 0.0217,-0.20614 -0.27218,-0.17591 -0.26794,-0.20335 0.0319,-0.20614 0.49281,-0.005 0.78953,-0.99753 1.12695,-3.77133 0.16107,-1.32407 0.49361,-3.96176 0.73898,-5.86152 0.35813,-2.7728 0.45576,-4.75483 0.49496,-10.04833 0.0514,-6.94509 -0.0226,-6.0927 1.48114,-17.06123 1.34605,-9.81845 1.86392,-25.37979 0.99972,-30.04031 -0.48139,-2.59609 -1.30949,-8.1437 -1.84367,-12.35108 -0.52931,-4.16908 -2.00493,-9.74141 -4.07452,-15.3865 -3.07832,-8.39649 -4.30933,-12.54687 -4.81205,-16.22386 -0.13381,-0.97867 -0.52297,-3.42795 -0.8648,-5.44285 -1.32625,-7.81734 -1.30925,-7.50682 -1.35821,-24.80681 -0.0441,-15.57917 -0.0584,-16.0839 -0.68728,-24.28346 -1.2188,-15.89063 -1.31822,-19.98084 -0.56641,-23.30422 0.27811,-1.22941 0.56749,-3.03601 0.64305,-4.01468 0.52073,-6.74391 1.99417,-18.03958 2.91231,-22.32627 0.82042,-3.83043 4.068,-8.103927 8.43473,-11.099261 0.36741,-0.252027 1.12104,-0.525333 1.67472,-0.60735 0.55368,-0.08202 1.38351,-0.283709 1.84406,-0.448202 2.94538,-1.051997 9.17757,-0.338894 10.70451,1.224839 0.43422,0.444683 0.8654,0.808514 0.95817,0.808514 0.2567,0 1.35803,0.965665 3.0958,2.714451 3.28287,3.303689 5.1732,7.729509 5.85945,13.718759 0.34585,3.01831 1.29782,8.45427 2.62125,14.96782 0.9381,4.61707 1.26366,6.42982 1.67304,9.31564 0.17967,1.26651 0.5993,4.1868 0.93251,6.48954 0.33321,2.30275 0.75619,6.21217 0.93996,8.68762 1.28326,17.28564 1.1731,16.74818 6.28598,30.66834 2.58647,7.04183 3.8792,13.24639 4.81961,23.13209 1.36862,14.38707 3.88582,27.261 6.11775,31.28855 1.33594,2.41074 4.30572,5.55532 5.24649,5.55532 2.46478,0 2.79742,-0.4221 2.88694,-3.66345 0.0382,-1.38165 0.12331,-3.31281 0.18923,-4.29148 0.15635,-2.32155 -0.12711,-5.7662 -1.02498,-12.45574 -0.40179,-2.99356 -0.88491,-6.90299 -1.07358,-8.68762 -0.30582,-2.89267 -1.27672,-8.6955 -2.92465,-17.4799 -2.23792,-11.92947 -2.1636,-11.05966 -2.17398,-25.4422 -0.0105,-14.61616 -0.15019,-16.90905 -1.61079,-26.44862 -0.76442,-4.99268 -1.47237,-8.96544 -2.1682,-12.16728 -0.48151,-2.21566 -1.53748,-7.9111 -2.01826,-10.88569 -0.42806,-2.64838 -0.47945,-8.38933 -0.13395,-14.96488 0.14208,-2.7041 0.25888,-7.885271 0.25956,-11.51371 10e-4,-6.86093 0.14516,-8.597005 1.04227,-12.576173 0.23203,-1.029188 0.61752,-2.742627 0.85664,-3.807645 0.78192,-3.482603 1.10187,-3.912458 5.35368,-7.192667 4.35892,-3.362843 7.58509,-4.17068 13.67197,-3.42348 4.48255,0.55026 9.41001,4.038932 11.52024,8.1564 0.50157,0.978665 1.3001,2.391712 1.77451,3.140103 2.4174,3.813496 3.34947,7.61978 3.17004,12.945375 -0.0724,2.14858 -0.18882,5.652987 -0.25874,7.787569 -0.1908,5.825268 0.183,9.253838 2.08739,19.146358 0.60589,3.14732 1.13232,6.5654 1.40249,9.1063 0.24238,2.27942 1.11158,10.97777 1.66306,16.64255 0.93995,9.65525 1.48634,12.73624 3.68259,20.76555 3.97523,14.53318 4.05002,15.09937 4.69526,35.54696 0.46752,14.8157 2.22106,26.20439 5.68903,36.94854 0.81105,2.51274 2.00422,3.73476 3.19895,3.2763 0.15954,-0.0612 0.40269,0.0244 0.54035,0.19026 0.13765,0.16586 0.57428,0.30157 0.97028,0.30157 h 0.72 l -0.0884,-3.82046 c -0.0889,-3.84264 -0.48033,-10.08581 -0.66269,-10.57034 -0.2549,-0.67726 -0.53728,-8.0015 -0.56704,-14.70749 -0.0393,-8.85837 0.16184,-11.99314 1.49773,-23.34143 1.74521,-14.82537 1.75607,-18.146 0.0983,-30.04032 -0.63742,-4.57333 -0.65069,-4.67793 -0.91577,-7.22223 -0.76325,-7.32563 -1.02672,-21.54757 -0.51967,-28.05159 0.18714,-2.40046 0.35345,-7.49154 0.38979,-11.93239 0.067,-8.1805 0.33304,-11.881362 0.97833,-13.607114 0.21526,-0.575686 0.39143,-1.26268 0.39149,-1.526656 6.3e-4,-2.418565 5.52782,-6.527771 9.002,-6.69244 9.62527,-0.456219 11.68299,0.708495 17.65309,9.992021 1.72953,2.689449 3.65329,6.552289 4.32975,8.694089 0.14545,0.46054 0.42588,1.21417 0.62316,1.67472 1.20122,2.80422 2.2099,8.26206 2.61732,14.16215 0.13245,1.9181 -0.13647,6.51332 -0.6352,10.854 -0.75451,6.56686 -0.66175,8.74304 0.99034,23.23676 0.20281,1.77932 0.25743,5.42751 0.20932,13.98308 -0.0682,12.12404 -0.0229,13.12758 0.92801,20.55805 2.10468,16.44696 1.79036,26.00736 -1.49706,45.5315 -1.77055,10.51548 -1.73651,17.62616 0.0871,18.20496 0.24891,0.079 0.53068,0.52855 0.74829,1.19388 1.72787,5.28265 3.2943,1.11904 4.71985,-12.54534 0.88741,-8.50639 1.5403,-11.03888 5.49072,-21.29798 3.46278,-8.99271 3.93013,-12.10829 3.92521,-26.16752 -0.003,-8.77692 -0.0866,-8.22954 2.41105,-15.80519 0.85409,-2.59058 1.87548,-5.88769 2.26978,-7.3269 2.26246,-8.25839 4.36164,-14.93836 5.36149,-17.06123 0.43382,-0.9211 0.86173,-1.91023 0.95091,-2.19807 1.12706,-3.63816 5.68804,-6.58746 10.15325,-6.56546 3.75251,0.0185 9.6358,1.92921 10.94558,3.5548 0.36011,0.44692 1.10909,1.31783 1.6644,1.93535 2.28729,2.54351 2.62906,3.35702 2.77497,6.60518 0.047,1.04594 0.1824,3.07924 0.30091,4.51846 0.73187,8.88733 0.29303,23.15601 -0.93033,30.24966 -0.6496,3.76659 -1.89756,12.88048 -2.2073,16.11972 -0.17298,1.8092 -0.34862,2.66667 -0.62807,3.06624 -0.51753,0.73998 -0.54794,0.90491 -1.03698,5.62085 -0.23281,2.24517 -0.56099,5.25967 -0.7293,6.69889 -0.41977,3.58982 -0.41385,4.4789 0.0287,4.30907 0.28801,-0.11051 0.30059,-0.08 0.0777,0.18858 -0.27653,0.33321 -0.31752,1.48528 -0.23104,6.49271 0.0651,3.77206 -1.51293,13.46091 -3.22208,19.78264 -5.18329,19.17167 -6.05287,26.90876 -4.29378,38.20459 0.12552,0.80596 0.35981,2.59582 0.52069,3.97746 0.3044,2.61447 0.69957,4.34073 1.08101,4.72217 0.15768,0.15768 0.14221,0.44895 -0.0528,0.99514 -0.38424,1.0761 -0.35849,1.59832 0.11747,2.38093 0.37471,0.6162 0.38225,0.70919 0.0841,1.03865 -0.27468,0.3035 -0.28732,0.48347 -0.0785,1.11628 0.13695,0.41496 0.19625,0.89187 0.1318,1.05983 -0.0724,0.18876 0.01,0.30538 0.21589,0.30538 0.27317,0 0.28594,0.0568 0.071,0.31579 -0.17309,0.20853 -0.21211,0.58178 -0.11489,1.09904 0.081,0.43078 0.13829,1.20716 0.12745,1.72528 -0.0109,0.51811 0.0725,1.25773 0.18539,1.64359 0.13636,0.46635 0.13046,1.27346 -0.0176,2.40741 -0.2551,1.95369 -0.27632,2.17197 -0.58332,5.99733 -0.52122,6.49448 -0.68078,8.24325 -1.07913,11.82772 -0.23032,2.07246 -0.79857,5.88459 -1.26278,8.47137 -0.46421,2.58679 -1.0726,6.73173 -1.35198,9.21096 -1.22791,10.89656 -3.24048,22.60035 -5.4009,31.40794 -0.52247,2.13004 -1.24247,5.56845 -1.6,7.64092 -0.35754,2.07247 -0.79617,4.61595 -0.97473,5.65218 -0.54845,3.18267 -2.73472,9.05481 -6.54693,17.58458 -1.28646,2.87843 -2.61175,5.84583 -2.9451,6.59422 -3.27111,7.34373 -4.56132,14.16776 -5.86153,31.00244 -0.71971,9.31826 -0.80137,12.65315 -0.3052,12.46276 0.25728,-0.0987 0.27751,-0.0451 0.10467,0.27785 -0.12099,0.22609 -0.21417,1.89148 -0.21417,3.82806 0,2.41476 -0.0773,3.53203 -0.26168,3.78031 -0.23959,0.3227 -1.50735,0.36176 -15.02016,0.46279 -14.6113,0.10925 -26.5217,0.3676 -33.80844,0.73334 -2.07247,0.10402 -13.51814,0.28529 -25.43483,0.40279 -11.91669,0.1175 -23.88049,0.30978 -26.58621,0.4273 -2.70572,0.11751 -6.16212,0.21361 -7.68089,0.21355 -1.77368,-6e-5 -2.81204,0.0818 -2.90297,0.22896 -0.0779,0.12598 -0.36603,0.18614 -0.64038,0.13368 -0.27434,-0.0524 -0.49881,-0.0142 -0.49881,0.085 0,0.17976 -0.73968,0.18983 -2.05307,0.028 z"
     id="path775" /><path
     style="display:none;fill:none;stroke:#010000;stroke-width:3.77953;stroke-dasharray:none;stroke-opacity:0.151052"
     d="m 264.51019,477.37901 c -0.40452,-0.0498 -0.74337,-0.23174 -0.81506,-0.4375 -0.66691,-1.91419 -1.38399,-3.60143 -1.48688,-3.49854 -0.0697,0.0698 -0.2724,-0.15024 -0.45033,-0.48887 -0.70516,-1.34208 -6.47365,-7.05769 -11.50519,-11.3997 -0.64316,-0.55502 -1.45199,-1.26657 -1.7974,-1.58123 -0.75165,-0.68469 -4.76113,-3.85969 -7.95492,-6.29926 -1.26651,-0.96742 -2.34985,-1.81376 -2.40742,-1.88077 -0.0576,-0.067 -1.01794,-0.90117 -2.13416,-1.85371 -1.79502,-1.5318 -3.9259,-3.73025 -5.10823,-5.2702 -0.21919,-0.2855 -1.30289,-1.46304 -2.40822,-2.61675 -1.78063,-1.85861 -3.32848,-3.80759 -3.32848,-4.1911 0,-0.0736 -0.26751,-0.52768 -0.59447,-1.00898 -0.32696,-0.48129 -0.90531,-1.46385 -1.28521,-2.18346 -0.3799,-0.7196 -0.77181,-1.30837 -0.87091,-1.30837 -0.0991,0 -0.18017,-0.14131 -0.18017,-0.31401 0,-0.17271 -0.0942,-0.31401 -0.20934,-0.31401 -0.11514,0 -0.19819,-0.0707 -0.18455,-0.15701 0.0749,-0.47443 -0.0522,-0.89746 -0.23561,-0.7841 -0.11595,0.0716 -0.26465,-0.0405 -0.33043,-0.24933 -0.29313,-0.93026 -1.05809,-2.52791 -1.49427,-3.1208 -0.26211,-0.35628 -0.47656,-0.75664 -0.47656,-0.8897 0,-0.13305 -0.0837,-0.24191 -0.18609,-0.24191 -0.10234,0 -0.1817,-0.11775 -0.17636,-0.26167 0.0294,-0.79102 -0.0723,-1.03299 -0.38393,-0.91342 -0.25092,0.0963 -0.29692,0.0288 -0.19634,-0.28811 0.0916,-0.28877 -0.0446,-0.58898 -0.45074,-0.99307 -0.32015,-0.31853 -0.58742,-0.81748 -0.59394,-1.10875 -0.007,-0.29126 -0.2058,-0.80937 -0.44287,-1.15137 -0.23706,-0.34198 -0.72712,-1.26366 -1.08902,-2.04817 -0.36191,-0.78452 -0.85739,-1.70639 -1.10107,-2.04862 -0.24369,-0.34223 -0.46017,-0.73658 -0.48106,-0.87636 -0.0209,-0.13976 -0.33155,-0.68015 -0.69035,-1.20086 -0.3588,-0.52071 -0.80119,-1.27434 -0.98308,-1.67472 -0.18189,-0.40039 -0.99027,-1.71711 -1.7964,-2.92605 -0.80613,-1.20894 -1.53374,-2.33938 -1.6169,-2.51209 -0.0832,-0.1727 -0.6745,-1.11436 -1.31407,-2.09258 -1.29364,-1.97858 -1.28799,-1.96966 -2.31424,-3.65163 -0.40298,-0.66044 -0.87399,-1.41242 -1.0467,-1.67101 -0.1727,-0.25862 -0.62511,-0.98041 -1.00534,-1.60399 -0.38024,-0.62358 -1.34961,-2.07582 -2.15417,-3.22719 -0.80456,-1.15137 -1.62096,-2.32891 -1.81423,-2.61675 -0.78954,-1.17593 -3.55038,-4.79971 -4.64103,-6.09165 -2.97351,-3.5223 -6.29508,-8.21043 -6.29508,-8.88497 0,-0.0359 -0.31655,-0.75515 -0.70345,-1.59831 -0.38689,-0.84314 -0.82334,-1.90981 -0.96987,-2.37036 -0.14654,-0.46055 -0.67781,-1.70038 -1.18062,-2.75521 -0.5028,-1.0548 -0.91563,-2.18524 -0.91739,-2.51208 -0.002,-0.38787 -0.0625,-0.50076 -0.17397,-0.32511 -0.15933,0.25113 -0.71726,-1.11289 -0.63982,-1.56423 0.0669,-0.38987 -0.0399,-0.68328 -0.36833,-1.01168 -0.23843,-0.23843 -0.27486,-0.39314 -0.11572,-0.49148 0.15054,-0.0931 0.16361,-0.25207 0.0372,-0.45203 -0.13188,-0.20853 -0.19613,-0.2237 -0.19829,-0.0468 -0.002,0.14392 -0.10749,0.26167 -0.23495,0.26167 -0.12745,0 -0.17415,-0.15005 -0.10377,-0.33345 0.36192,-0.94316 0.3799,-1.46557 0.0358,-1.03959 -0.32495,0.40225 -0.32844,0.40225 -0.34548,0 -0.009,-0.22349 -0.0588,-0.68896 -0.1096,-1.03437 -0.0693,-0.4711 -0.0396,-0.54956 0.11868,-0.31401 0.11609,0.17271 0.2125,0.23716 0.21427,0.14325 0.005,-0.28539 -0.46357,-1.06834 -0.81602,-1.36249 -0.29235,-0.244 -0.27571,-0.26515 0.13887,-0.1766 0.25905,0.0553 0.47101,0.0153 0.47101,-0.0891 0,-0.10436 -0.14765,-0.18975 -0.32812,-0.18975 -0.23285,0 -0.28953,-0.12156 -0.19523,-0.41868 0.1637,-0.51577 -0.064,-1.30591 -0.32908,-1.14206 -0.10685,0.066 -0.19427,-0.0739 -0.19427,-0.31097 0,-0.23706 -0.0942,-0.43103 -0.20934,-0.43103 -0.11514,0 -0.20934,-0.15284 -0.20934,-0.33964 0,-0.27817 0.0568,-0.29249 0.31401,-0.079 0.37466,0.31093 0.45117,-0.30118 0.10467,-0.83736 -0.17068,-0.26413 -0.20344,-0.25173 -0.20614,0.078 -0.003,0.32462 -0.0572,0.34719 -0.31721,0.13138 -0.40229,-0.33388 -0.40229,-0.62802 0,-0.62802 0.1727,0 0.31401,-0.14131 0.31401,-0.31401 0,-0.17271 -0.0811,-0.31401 -0.18031,-0.31401 -0.0992,0 -0.13529,-0.23551 -0.0803,-0.52335 0.0579,-0.30282 0.003,-0.52335 -0.13123,-0.52335 -0.1272,0 -0.21366,-0.16486 -0.19213,-0.36635 0.085,-0.7952 -0.31275,-2.97114 -0.51969,-2.84324 -0.13454,0.0831 -0.1711,-0.0881 -0.0992,-0.4645 0.0627,-0.32791 0.0128,-0.83646 -0.11077,-1.13015 -0.27546,-0.65439 -0.38398,-1.33634 -0.37649,-2.36567 0.004,-0.48204 -0.0934,-0.78626 -0.25116,-0.78823 -0.20184,-0.003 -0.20156,-0.0384 0.001,-0.16722 0.20384,-0.12947 0.19717,-0.51445 -0.0317,-1.82852 -0.15946,-0.91549 -0.24654,-1.73516 -0.19352,-1.82151 0.053,-0.0864 0.0258,-0.27131 -0.0606,-0.411 -0.0863,-0.13969 -0.18864,-0.58716 -0.22734,-0.99436 -0.0387,-0.40721 -0.16683,-1.494 -0.28474,-2.4151 -0.39785,-3.10807 -0.72902,-7.25613 -0.63292,-7.92757 0.0994,-0.69427 -0.61678,-6.27107 -0.95784,-7.45893 -0.78181,-2.72287 -1.73319,-5.68357 -1.9667,-6.12036 -0.10688,-0.19994 -0.19433,-0.46224 -0.19433,-0.58291 0,-0.12064 -0.43343,-1.32303 -0.96317,-2.67191 -0.52967,-1.3489 -1.20112,-3.06486 -1.49205,-3.81326 -0.84981,-2.18614 -1.45694,-3.45897 -2.35505,-4.93728 -0.46301,-0.76215 -0.84184,-1.5653 -0.84184,-1.78478 0,-0.21949 -0.41541,-1.83486 -0.92313,-3.58972 -1.20542,-4.16631 -4.02621,-15.44388 -5.22257,-20.8799 -1.87578,-8.52317 -2.92075,-12.67248 -4.22542,-16.77817 -1.06456,-3.35006 -1.82436,-6.40253 -2.18084,-8.76134 -0.1305,-0.86353 -0.28854,-1.89976 -0.35121,-2.30274 -0.14235,-0.91542 -1.04195,-5.78369 -1.35393,-7.32691 -0.3778,-1.86882 0.17987,-5.87551 1.04198,-7.48638 0.71591,-1.33769 4.83387,-4.15082 8.50496,-5.81007 l 2.72143,-1.23001 2.51208,0.009 c 1.38164,0.005 2.88889,0.11222 3.34944,0.2385 6.0648,1.66287 8.47937,2.8724 12.56041,6.2919 2.18262,1.82882 1.94037,1.58951 4.48282,4.42837 1.08272,1.20894 2.26898,2.53172 2.63613,2.93952 1.19444,1.32666 2.07323,2.57378 3.53709,5.01961 0.79109,1.32176 1.75516,2.89019 2.14238,3.48538 0.38721,0.5952 0.70403,1.13521 0.70403,1.20002 0,0.0648 0.36135,0.70827 0.803,1.42991 2.40966,3.93726 5.90648,11.45338 8.20715,17.6406 1.18776,3.19423 1.58505,4.12218 3.18181,7.43157 0.5833,1.20894 1.79537,3.72031 2.69349,5.5808 3.44252,7.13136 4.62754,11.45491 6.27367,22.88947 0.61013,4.23811 3.04774,11.10035 3.94005,11.09183 0.29317,-0.003 0.29591,-0.0289 0.0217,-0.20614 -0.27218,-0.17591 -0.26794,-0.20335 0.0319,-0.20614 0.49281,-0.005 0.78953,-0.99753 1.12695,-3.77133 0.16107,-1.32407 0.49361,-3.96176 0.73898,-5.86152 0.35813,-2.7728 0.45576,-4.75483 0.49496,-10.04833 0.0514,-6.94509 -0.0226,-6.0927 1.48114,-17.06123 1.34605,-9.81845 1.86392,-25.37979 0.99972,-30.04031 -0.48139,-2.59609 -1.30949,-8.1437 -1.84367,-12.35108 -0.52931,-4.16908 -2.00493,-9.74141 -4.07452,-15.3865 -3.07832,-8.39649 -4.30933,-12.54687 -4.81205,-16.22386 -0.13381,-0.97867 -0.52297,-3.42795 -0.8648,-5.44285 -1.32625,-7.81734 -1.30925,-7.50682 -1.35821,-24.80681 -0.0441,-15.57917 -0.0584,-16.0839 -0.68728,-24.28346 -1.2188,-15.89063 -1.31822,-19.98084 -0.56641,-23.30422 0.27811,-1.22941 0.56749,-3.03601 0.64305,-4.01468 0.52073,-6.74391 1.99417,-18.03958 2.91231,-22.32627 0.82042,-3.83043 4.068,-8.103927 8.43473,-11.099261 0.36741,-0.252027 1.12104,-0.525333 1.67472,-0.60735 0.55368,-0.08202 1.38351,-0.283709 1.84406,-0.448202 2.94538,-1.051997 9.17757,-0.338894 10.70451,1.224839 0.43422,0.444683 0.8654,0.808514 0.95817,0.808514 0.2567,0 1.35803,0.965665 3.0958,2.714451 3.28287,3.303689 5.1732,7.729509 5.85945,13.718759 0.34585,3.01831 1.29782,8.45427 2.62125,14.96782 0.9381,4.61707 1.26366,6.42982 1.67304,9.31564 0.17967,1.26651 0.5993,4.1868 0.93251,6.48954 0.33321,2.30275 0.75619,6.21217 0.93996,8.68762 1.28326,17.28564 1.1731,16.74818 6.28598,30.66834 2.58647,7.04183 3.8792,13.24639 4.81961,23.13209 1.36862,14.38707 3.88582,27.261 6.11775,31.28855 1.33594,2.41074 4.30572,5.55532 5.24649,5.55532 2.46478,0 2.79742,-0.4221 2.88694,-3.66345 0.0382,-1.38165 0.12331,-3.31281 0.18923,-4.29148 0.15635,-2.32155 -0.12711,-5.7662 -1.02498,-12.45574 -0.40179,-2.99356 -0.88491,-6.90299 -1.07358,-8.68762 -0.30582,-2.89267 -1.27672,-8.6955 -2.92465,-17.4799 -2.23792,-11.92947 -2.1636,-11.05966 -2.17398,-25.4422 -0.0105,-14.61616 -0.15019,-16.90905 -1.61079,-26.44862 -0.76442,-4.99268 -1.47237,-8.96544 -2.1682,-12.16728 -0.48151,-2.21566 -1.53748,-7.9111 -2.01826,-10.88569 -0.42806,-2.64838 -0.47945,-8.38933 -0.13395,-14.96488 0.14208,-2.7041 0.25888,-7.885271 0.25956,-11.51371 10e-4,-6.86093 0.14516,-8.597005 1.04227,-12.576173 0.23203,-1.029188 0.61752,-2.742627 0.85664,-3.807645 0.78192,-3.482603 1.10187,-3.912458 5.35368,-7.192667 4.35892,-3.362843 7.58509,-4.17068 13.67197,-3.42348 4.48255,0.55026 9.41001,4.038932 11.52024,8.1564 0.50157,0.978665 1.3001,2.391712 1.77451,3.140103 2.4174,3.813496 3.34947,7.61978 3.17004,12.945375 -0.0724,2.14858 -0.18882,5.652987 -0.25874,7.787569 -0.1908,5.825268 0.183,9.253838 2.08739,19.146358 0.60589,3.14732 1.13232,6.5654 1.40249,9.1063 0.24238,2.27942 1.11158,10.97777 1.66306,16.64255 0.93995,9.65525 1.48634,12.73624 3.68259,20.76555 3.97523,14.53318 4.05002,15.09937 4.69526,35.54696 0.46752,14.8157 2.22106,26.20439 5.68903,36.94854 0.81105,2.51274 2.00422,3.73476 3.19895,3.2763 0.15954,-0.0612 0.40269,0.0244 0.54035,0.19026 0.13765,0.16586 0.57428,0.30157 0.97028,0.30157 h 0.72 l -0.0884,-3.82046 c -0.0889,-3.84264 -0.48033,-10.08581 -0.66269,-10.57034 -0.2549,-0.67726 -0.53728,-8.0015 -0.56704,-14.70749 -0.0393,-8.85837 0.16184,-11.99314 1.49773,-23.34143 1.74521,-14.82537 1.75607,-18.146 0.0983,-30.04032 -0.63742,-4.57333 -0.65069,-4.67793 -0.91577,-7.22223 -0.76325,-7.32563 -1.02672,-21.54757 -0.51967,-28.05159 0.18714,-2.40046 0.35345,-7.49154 0.38979,-11.93239 0.067,-8.1805 0.33304,-11.881362 0.97833,-13.607114 0.21526,-0.575686 0.39143,-1.26268 0.39149,-1.526656 6.3e-4,-2.418565 5.52782,-6.527771 9.002,-6.69244 9.62527,-0.456219 11.68299,0.708495 17.65309,9.992021 1.72953,2.689449 3.65329,6.552289 4.32975,8.694089 0.14545,0.46054 0.42588,1.21417 0.62316,1.67472 1.20122,2.80422 2.2099,8.26206 2.61732,14.16215 0.13245,1.9181 -0.13647,6.51332 -0.6352,10.854 -0.75451,6.56686 -0.66175,8.74304 0.99034,23.23676 0.20281,1.77932 0.25743,5.42751 0.20932,13.98308 -0.0682,12.12404 -0.0229,13.12758 0.92801,20.55805 2.10468,16.44696 1.79036,26.00736 -1.49706,45.5315 -1.77055,10.51548 -1.73651,17.62616 0.0871,18.20496 0.24891,0.079 0.53068,0.52855 0.74829,1.19388 1.72787,5.28265 3.2943,1.11904 4.71985,-12.54534 0.88741,-8.50639 1.5403,-11.03888 5.49072,-21.29798 3.46278,-8.99271 3.93013,-12.10829 3.92521,-26.16752 -0.003,-8.77692 -0.0866,-8.22954 2.41105,-15.80519 0.85409,-2.59058 1.87548,-5.88769 2.26978,-7.3269 2.26246,-8.25839 4.36164,-14.93836 5.36149,-17.06123 0.43382,-0.9211 0.86173,-1.91023 0.95091,-2.19807 1.12706,-3.63816 5.68804,-6.58746 10.15325,-6.56546 3.75251,0.0185 9.6358,1.92921 10.94558,3.5548 0.36011,0.44692 1.10909,1.31783 1.6644,1.93535 2.28729,2.54351 2.62906,3.35702 2.77497,6.60518 0.047,1.04594 0.1824,3.07924 0.30091,4.51846 0.73187,8.88733 0.29303,23.15601 -0.93033,30.24966 -0.6496,3.76659 -1.89756,12.88048 -2.2073,16.11972 -0.17298,1.8092 -0.34862,2.66667 -0.62807,3.06624 -0.51753,0.73998 -0.54794,0.90491 -1.03698,5.62085 -0.23281,2.24517 -0.56099,5.25967 -0.7293,6.69889 -0.41977,3.58982 -0.41385,4.4789 0.0287,4.30907 0.28801,-0.11051 0.30059,-0.08 0.0777,0.18858 -0.27653,0.33321 -0.31752,1.48528 -0.23104,6.49271 0.0651,3.77206 -1.51293,13.46091 -3.22208,19.78264 -5.18329,19.17167 -6.05287,26.90876 -4.29378,38.20459 0.12552,0.80596 0.35981,2.59582 0.52069,3.97746 0.3044,2.61447 0.69957,4.34073 1.08101,4.72217 0.15768,0.15768 0.14221,0.44895 -0.0528,0.99514 -0.38424,1.0761 -0.35849,1.59832 0.11747,2.38093 0.37471,0.6162 0.38225,0.70919 0.0841,1.03865 -0.27468,0.3035 -0.28732,0.48347 -0.0785,1.11628 0.13695,0.41496 0.19625,0.89187 0.1318,1.05983 -0.0724,0.18876 0.01,0.30538 0.21589,0.30538 0.27317,0 0.28594,0.0568 0.071,0.31579 -0.17309,0.20853 -0.21211,0.58178 -0.11489,1.09904 0.081,0.43078 0.13829,1.20716 0.12745,1.72528 -0.0109,0.51811 0.0725,1.25773 0.18539,1.64359 0.13636,0.46635 0.13046,1.27346 -0.0176,2.40741 -0.2551,1.95369 -0.27632,2.17197 -0.58332,5.99733 -0.52122,6.49448 -0.68078,8.24325 -1.07913,11.82772 -0.23032,2.07246 -0.79857,5.88459 -1.26278,8.47137 -0.46421,2.58679 -1.0726,6.73173 -1.35198,9.21096 -1.22791,10.89656 -3.24048,22.60035 -5.4009,31.40794 -0.52247,2.13004 -1.24247,5.56845 -1.6,7.64092 -0.35754,2.07247 -0.79617,4.61595 -0.97473,5.65218 -0.54845,3.18267 -2.73472,9.05481 -6.54693,17.58458 -1.28646,2.87843 -2.61175,5.84583 -2.9451,6.59422 -3.27111,7.34373 -4.56132,14.16776 -5.86153,31.00244 -0.71971,9.31826 -0.80137,12.65315 -0.3052,12.46276 0.25728,-0.0987 0.27751,-0.0451 0.10467,0.27785 -0.12099,0.22609 -0.21417,1.89148 -0.21417,3.82806 0,2.41476 -0.0773,3.53203 -0.26168,3.78031 -0.23959,0.3227 -1.50735,0.36176 -15.02016,0.46279 -14.6113,0.10925 -26.5217,0.3676 -33.80844,0.73334 -2.07247,0.10402 -13.51814,0.28529 -25.43483,0.40279 -11.91669,0.1175 -23.88049,0.30978 -26.58621,0.4273 -2.70572,0.11751 -6.16212,0.21361 -7.68089,0.21355 -1.77368,-6e-5 -2.81204,0.0818 -2.90297,0.22896 -0.0779,0.12598 -0.36603,0.18614 -0.64038,0.13368 -0.27434,-0.0524 -0.49881,-0.0142 -0.49881,0.085 0,0.17976 -0.73968,0.18983 -2.05307,0.028 z"
     id="path3509" /><path
     style="fill:none;fill-opacity:0.6;stroke:#010000;stroke-width:3.77953;stroke-dasharray:none;stroke-opacity:1"
     d="m 252.26188,484.85083 c -10.64752,-9.92863 -23.52878,-25.58724 -28.76233,-33.61832 -15.57821,-19.36683 -41.48003,-66.63727 -45.07345,-78.0692 -2.71424,-8.8721 -8.64624,-31.11279 -9.83647,-34.98795 -1.10183,-3.58735 -6.57778,-17.04416 -8.71586,-20.66904 -1.27146,-2.15562 -13.94537,-56.52858 -14.1944,-60.26394 -0.24902,-3.73537 0.74708,-6.72367 1.9922,-7.96879 1.24512,-1.24512 7.47074,-5.72757 9.96098,-5.72757 2.49025,0 17.43172,1.74318 22.91026,9.21391 5.47854,7.47074 16.1866,26.39661 18.42782,31.12807 2.24122,4.73147 7.71976,18.92587 8.71586,21.91416 0.9961,2.9883 4.98049,26.89466 6.97269,26.64563 1.99219,-0.24902 3.76774,-36.92857 3.76773,-55.60541 0,-20.94111 -0.29048,-18.20696 -4.51481,-41.01612 -1.56849,-8.46901 -6.97268,-108.07666 -5.47854,-116.79252 1.49415,-8.71586 8.96489,-13.94537 14.94148,-14.1944 5.97659,-0.24902 14.44342,4.48244 16.68464,10.70806 2.24122,6.22561 21.91417,126.50448 23.65734,130.48887 1.74317,3.98439 5.97659,8.96488 7.71976,8.71586 1.74317,-0.24903 1.9922,-14.1944 2.73927,-11.20611 0.74707,2.9883 -13.94538,-139.70278 -13.44733,-143.68717 0.49805,-3.984393 3.9844,-20.420014 16.1866,-20.918063 12.2022,-0.49805 18.67684,5.727565 19.92196,14.443424 1.24513,8.715859 18.42782,148.916689 19.1749,152.154009 0.74707,3.23732 1.74317,7.96879 4.98049,7.71976 3.23732,-0.24902 1.74317,-6.97269 1.49414,-9.71196 -0.24902,-2.73927 -0.24902,-120.52788 -0.24902,-125.50838 0,-4.98049 0.9961,-15.93757 12.2022,-16.68464 11.20611,-0.74708 15.68855,7.47073 17.1827,12.70025 1.49415,5.22952 4.23342,147.42254 4.48244,150.41084 0.24902,2.98829 1.9922,7.47073 3.48634,7.47073 1.49415,0 4.23342,-15.68854 3.9844,-13.1983 -0.24903,2.49025 16.93367,-87.15859 19.67294,-91.14299 2.73927,-3.98439 6.97269,-8.46683 14.69245,-6.72366 7.71976,1.74317 11.95318,9.46293 11.95318,15.43952 0,5.97659 -10.45904,98.86275 -11.95318,104.09227 -1.49415,5.22952 -2.73927,12.94928 -2.73927,16.68465 0,3.73536 2.73927,22.91026 2.98829,27.89075 0.24903,4.98049 -3.48634,40.09295 -4.23342,43.33027 -0.74707,3.23732 -7.47073,46.06954 -8.96488,49.30686 -1.49415,3.23732 -10.45903,21.41612 -11.45513,26.39661 -0.9961,4.98049 -3.73537,37.35368 -3.73537,39.5949 0,2.24122 -0.74707,2.98829 -3.23732,3.23732 -2.0634,0.20635 -97.94402,2.82 -102.60087,2.72052 -5.80436,-0.12399 -8.39523,-1.62976 -11.70141,-4.71271 z"
     id="path3565"
     sodipodi:nodetypes="sccssssssssssssssssssssssssssssssssssssssssss" /><path
     id="path4041"
     style="fill:none;fill-opacity:0.6;stroke:#010000;stroke-width:3.77953;stroke-dasharray:none;stroke-opacity:1"
     d="m 276.81442,60.937554 c -10.61575,0.113462 -20.72247,6.315553 -26.22461,15.296875 -3.32369,5.164425 -5.6536,10.956587 -6.9043,16.966797 -6.86197,-4.565839 -15.29104,-7.143804 -23.55411,-6.105259 -9.87449,1.205458 -18.83576,7.270283 -24.19825,15.566213 -3.69081,5.62392 -5.73868,12.32178 -5.69734,19.05741 -0.10697,7.09169 0.11012,14.18491 0.316,21.27269 0.50838,15.14448 1.24816,30.28037 2.03487,45.41257 0.83846,15.55464 1.74665,31.1103 3.10898,46.62875 0.39928,3.54451 1.05364,7.0538 1.72618,10.55435 -1.98146,-2.88049 -3.94748,-5.83088 -6.61691,-8.13248 -6.13359,-5.53355 -14.04328,-8.65152 -22.01321,-10.43945 -4.17289,-0.92213 -8.45533,-1.5481 -12.73707,-1.37632 -6.05336,0.49568 -11.49636,3.58073 -16.35276,7.02851 -3.95394,2.74081 -7.52092,6.27936 -9.44164,10.7591 -3.05456,6.66091 -3.20218,14.35042 -1.49051,21.39152 4.02071,18.68445 8.31003,37.31608 13.18882,55.7964 1.38014,4.53764 3.78507,8.66018 5.5672,13.03818 1.16421,2.72121 2.26778,5.46941 3.2535,8.26071 0.54279,1.56942 1.1279,3.35435 1.59613,5.03557 3.11522,10.95133 5.86473,22.01195 9.38357,32.85012 2.91132,8.31136 7.14134,16.06847 11.18775,23.86359 9.20092,17.39477 19.15991,34.41885 30.38958,50.58917 4.54551,6.2436 9.03698,12.5306 13.79743,18.61321 7.09113,8.91616 14.73494,17.40664 23.00462,25.24598 3.82467,3.56651 8.30884,6.5645 13.3918,7.97008 5.10552,1.54934 10.50192,1.62435 15.78795,1.38496 24.69513,-0.52601 49.38655,-1.21293 74.07742,-1.90687 8.55835,-0.25913 17.12026,-0.48232 25.67224,-0.88707 7.09141,-0.74387 13.88328,-5.16593 16.80919,-11.76686 2.15849,-4.57281 1.91233,-9.73713 2.3679,-14.65239 0.76199,-9.8029 1.67114,-19.66339 2.78105,-29.42475 0.51315,-2.95624 2.06197,-5.58885 3.15018,-8.35331 2.59139,-5.89287 5.58813,-11.60898 7.97979,-17.58675 1.59203,-5.19528 2.42936,-10.57991 3.40156,-15.91518 2.07344,-11.82852 4.10829,-23.66439 6.05231,-35.51537 1.2659,-7.69712 1.99855,-15.45257 2.8221,-23.20578 0.64424,-6.61554 1.28366,-13.23602 1.65362,-19.87291 0.26203,-6.44195 -0.79583,-12.82653 -1.52164,-19.20485 -0.47454,-4.07098 -1.05399,-8.13991 -1.26852,-12.23363 0.0861,-4.79895 1.58035,-9.42251 2.47151,-14.08089 1.08846,-5.3687 1.53062,-10.83747 2.29555,-16.25612 3.01666,-23.88769 5.65566,-47.82205 8.19891,-71.76415 0.61678,-6.18576 1.3096,-12.37169 1.60721,-18.58165 0.0331,-13.48357 -8.72965,-26.60562 -21.3246,-31.51854 -9.4957,-3.82372 -20.99801,-2.76318 -29.29043,3.38257 -2.1479,1.60455 -4.14305,3.41828 -5.90777,5.4383 -0.40292,-12.59621 -0.7634,-25.19873 -1.45304,-37.78404 -0.31046,-4.69008 -1.43429,-9.35681 -3.62899,-13.53279 -4.05698,-8.174149 -11.38367,-14.846297 -20.21094,-17.425357 -8.88922,-2.70131 -18.99015,-1.856688 -26.99706,2.994929 -1.56713,0.96452 -3.038,2.08522 -4.39161,3.331243 -0.47256,-3.56644 -1.3982,-7.07927 -2.94134,-10.3373 -3.16356,-6.918079 -8.74042,-12.737851 -15.64017,-15.986765 -5.95416,-2.916027 -12.66867,-4.089534 -19.2681,-3.882966 z" /></svg>
