<?xml version="1.0" encoding="UTF-8" standalone="no"?>
<svg
   version="1.1"
   width="567"
   height="567"
   id="svg28"
   sodipodi:docname="light-keyhole.svg"
   inkscape:version="1.2.2 (732a01da63, 2022-12-09)"
   xml:space="preserve"
   xmlns:inkscape="http://www.inkscape.org/namespaces/inkscape"
   xmlns:sodipodi="http://sodipodi.sourceforge.net/DTD/sodipodi-0.dtd"
   xmlns="http://www.w3.org/2000/svg"
   xmlns:svg="http://www.w3.org/2000/svg"><sodipodi:namedview
     id="namedview28"
     pagecolor="#005ab8"
     bordercolor="#000000"
     borderopacity="0.25"
     inkscape:showpageshadow="2"
     inkscape:pageopacity="0"
     inkscape:pagecheckerboard="0"
     inkscape:deskcolor="#d1d1d1"
     inkscape:zoom="1.003917"
     inkscape:cx="185.77232"
     inkscape:cy="152.40303"
     inkscape:window-width="2560"
     inkscape:window-height="1334"
     inkscape:window-x="-11"
     inkscape:window-y="-11"
     inkscape:window-maximized="1"
     inkscape:current-layer="g605"
     showgrid="false" /><defs
     id="defs1"><style
       id="style563">
      .uuid-da8f2053-a715-4a57-b44f-39b87323d3a0 {
        fill: #201600;
      }

      .uuid-da8f2053-a715-4a57-b44f-39b87323d3a0, .uuid-3bde0d6e-527c-47fc-af21-14060eabf081 {
        stroke-width: 0px;
      }

      .uuid-3bde0d6e-527c-47fc-af21-14060eabf081 {
        fill: #fff;
      }
    </style></defs><path
     id="rect28"
     style="fill:none;stroke:#ffffff;stroke-width:3.77952756;stroke-linecap:round;stroke-linejoin:round;stroke-dasharray:none;stroke-opacity:1"
     d="M 24.566467,24.566467 H 542.43353 V 542.43353 H 24.566467 Z" /><g
     id="g58"
     transform="matrix(3.2372419,0,0,3.2372419,115.67953,146.99383)"
     style="display:none"><path
       class="uuid-3dd94540-de21-4cc6-a550-f92688b64dde"
       d="m 75.99,20.77 c -1.53,0.03 -3.07,0 -4.6,0 -16.1,0 -29.89,11.8 -32.47,27.73 -0.76,4.71 -0.58,9.32 1,13.85 2.5,7.18 7.56,11.46 14.89,13.09 6.01,1.34 11.94,0.69 17.74,-1.16 2.14,-0.68 4.24,-1.54 6.25,-2.55 5.46,-2.73 9.45,-6.95 11.8,-12.58 3.63,-8.7 3.77,-17.53 0.49,-26.39 -2.06,-5.56 -6.12,-8.96 -11.65,-10.77 -0.22,-0.07 -0.42,-0.22 -0.69,-0.38 0.1,-0.16 0.22,-0.28 0.33,-0.36 -0.64,-0.28 -1.28,-0.55 -1.94,-0.76 -0.29,0.4 -0.76,0.26 -1.15,0.26 z"
       id="path44"
       style="fill:#ffffff;stroke-width:0px"
       sodipodi:nodetypes="csccccccccccccc" /><path
       class="uuid-3dd94540-de21-4cc6-a550-f92688b64dde"
       d="M 49.7,23.82 C 49.62,22.93 49.58,22.03 49.47,21.15 49,17.3 47.43,13.97 44.59,11.29 41.27,8.16 37.35,7.36 32.99,8.38 c -3.26,0.76 -6.13,2.33 -8.61,4.54 -7.69,6.82 -11.81,15.35 -11.97,25.69 -0.04,2.7 0.52,5.33 1.51,7.85 2.11,5.39 6.1,8.59 11.69,9.81 3.08,0.67 6.18,0.55 9.23,-0.23 0.64,-0.16 1.23,-0.52 1.79,-0.76 0.09,-1.97 0.18,-3.79 0.27,-5.66 -0.91,-0.41 -1.79,-0.8 -2.65,-1.19 -1.35,1.07 -2.49,1.15 -4.03,0.25 -1.46,-0.85 -2.35,-2.19 -2.99,-3.71 -1.01,-2.37 -1.31,-4.84 -1.02,-7.38 0.44,-3.77 1.69,-7.21 4.4,-9.97 2.3,-2.35 5.1,-3.31 8.36,-2.72 0.64,0.12 1.26,0.49 1.8,0.87 0.24,0.17 0.44,0.69 0.35,0.96 -0.15,0.48 -0.62,0.27 -0.99,0.17 -0.7,-0.19 -1.38,-0.47 -2.09,-0.54 -2.53,-0.23 -4.68,0.62 -6.42,2.48 -2.08,2.22 -3.13,4.93 -3.67,7.87 -0.47,2.58 -0.29,5.1 0.75,7.51 0.38,0.88 0.93,1.72 1.54,2.47 0.72,0.9 1.74,1.31 3.07,1.15 C 33.16,47.76 33,47.7 32.85,47.61 30.16,45.95 29.27,43.35 29.32,40.4 c 0.07,-3.6 1.36,-6.8 3.55,-9.65 2.2,-2.86 5.13,-3.6 8.53,-2.98 0.96,0.18 1.91,0.44 2.84,0.72 0.51,0.15 1.08,0.28 1.3,0.95 -0.45,0.64 -1.11,0.53 -1.72,0.44 -1.09,-0.16 -2.18,-0.37 -3.27,-0.56 -2.42,-0.41 -4.5,0.2 -6.05,2.15 -2.57,3.22 -3.99,6.81 -3.25,11.01 0.27,1.54 1.04,2.79 2.39,3.61 1.08,0.66 2.2,1.27 3.47,1.99 0.31,-1.24 0.54,-2.23 0.8,-3.21 2.01,-7.52 6.38,-13.97 12.28,-18.55 0.15,-0.61 0.28,-1.22 0.35,-1.83 -0.11,0.09 -0.23,0.15 -0.33,0.16 -0.49,0.05 -0.49,-0.47 -0.53,-0.85 z M 19.79,22.31 c -1.7,3.19 -3.41,6.36 -4.38,9.88 -1.24,4.5 -1.41,8.96 0.26,13.4 0.08,0.21 0.08,0.45 0.15,0.8 -0.65,-0.24 -0.81,-0.7 -0.92,-1.12 -0.41,-1.6 -0.97,-3.19 -1.13,-4.82 -0.48,-4.81 0.51,-9.39 2.69,-13.69 0.79,-1.55 1.7,-3.04 2.59,-4.53 0.26,-0.43 0.67,-0.78 1,-1.17 0.1,0.07 0.2,0.14 0.3,0.21 -0.18,0.35 -0.37,0.7 -0.55,1.05 z M 40.09,9.94 c -0.53,0.04 -1.05,0.11 -1.58,0.12 -2.3,0.06 -4.58,0.26 -6.76,1.07 -1.98,0.73 -3.77,1.78 -5.31,3.21 -1.49,1.39 -2.9,2.86 -4.35,4.3 -0.11,0.11 -0.25,0.19 -0.54,0.4 0.03,-0.41 0.02,-0.64 0.08,-0.84 0.06,-0.2 0.18,-0.39 0.32,-0.54 2.82,-3.16 5.77,-6.13 9.93,-7.54 2.42,-0.82 4.91,-0.94 7.42,-0.77 0.17,0.01 0.34,0.05 0.5,0.1 0.11,0.04 0.21,0.13 0.31,0.2 0,0.1 -0.01,0.19 -0.02,0.29 z"
       id="path46"
       style="fill:#ffffff;stroke-width:0px" /><path
       class="uuid-8680bbd6-591e-444e-ac97-380dce32a29d"
       d="m 37.14,48.09 c 0.31,-1.24 0.54,-2.23 0.8,-3.21 3.37,-12.6 13.37,-22.21 26.1,-25.02 3.82,-0.84 7.66,-1.04 11.53,-0.31 0.76,0.15 1.02,0.26 1.65,0.83 -0.27,0.55 -0.8,0.38 -1.23,0.38 -1.53,0.03 -3.07,0 -4.6,0 -16.1,0 -29.89,11.8 -32.47,27.73 -0.76,4.71 -0.58,9.32 1,13.85 2.5,7.18 7.56,11.46 14.89,13.09 6.01,1.34 11.94,0.69 17.74,-1.16 2.14,-0.68 4.24,-1.54 6.25,-2.55 5.46,-2.73 9.45,-6.95 11.8,-12.58 3.63,-8.7 3.77,-17.53 0.49,-26.39 -2.06,-5.56 -6.12,-8.96 -11.65,-10.77 -0.22,-0.07 -0.42,-0.22 -0.69,-0.38 0.4,-0.62 0.9,-0.58 1.37,-0.39 1.56,0.66 3.16,1.26 4.64,2.08 3.33,1.84 5.56,4.68 7.09,8.12 1.89,4.26 2.77,8.74 2.88,13.38 0.11,4.91 -0.64,9.68 -2.45,14.24 -2.88,7.26 -8.04,12.3 -15.2,15.36 C 70.95,77 64.57,78.3 57.91,77.67 50.85,77 44.86,74.21 40.8,68.12 38.64,64.88 37.47,61.25 36.95,57.4 36.93,57.23 36.9,57.07 36.86,56.78 36.57,56.91 36.32,57 36.08,57.12 34.88,57.71 33.58,57.91 32.27,58.1 29,58.56 25.8,58.3 22.71,57.19 16.91,55.1 13.32,50.95 11.65,45.06 10.19,39.91 10.47,34.78 11.89,29.69 c 2.13,-7.6 6.16,-13.98 12.39,-18.88 2.57,-2.02 5.44,-3.46 8.67,-4.16 5.59,-1.21 10.26,0.39 14,4.66 2.46,2.8 3.81,6.13 4.21,9.82 0.1,0.91 -0.05,1.86 -0.21,2.77 -0.05,0.29 -0.45,0.7 -0.72,0.73 C 49.74,24.68 49.74,24.16 49.7,23.78 49.62,22.89 49.58,21.99 49.47,21.11 49,17.26 47.43,13.93 44.59,11.25 41.27,8.12 37.35,7.32 32.99,8.34 29.73,9.1 26.86,10.67 24.38,12.88 16.69,19.7 12.57,28.23 12.41,38.57 c -0.04,2.7 0.52,5.33 1.51,7.85 2.11,5.39 6.1,8.59 11.69,9.81 3.08,0.67 6.18,0.55 9.23,-0.23 0.64,-0.16 1.23,-0.52 1.79,-0.76 0.09,-1.97 0.18,-3.79 0.27,-5.66 -0.91,-0.41 -1.79,-0.8 -2.65,-1.19 -1.35,1.07 -2.49,1.15 -4.03,0.25 -1.46,-0.85 -2.35,-2.19 -2.99,-3.71 -1.01,-2.37 -1.31,-4.84 -1.02,-7.38 0.44,-3.77 1.69,-7.21 4.4,-9.97 2.3,-2.35 5.1,-3.31 8.36,-2.72 0.64,0.12 1.26,0.49 1.8,0.87 0.24,0.17 0.44,0.69 0.35,0.96 -0.15,0.48 -0.62,0.27 -0.99,0.17 -0.69,-0.19 -1.38,-0.47 -2.09,-0.54 -2.53,-0.23 -4.68,0.62 -6.42,2.48 -2.08,2.22 -3.13,4.93 -3.67,7.87 -0.47,2.58 -0.29,5.1 0.75,7.51 0.38,0.88 0.94,1.72 1.54,2.47 0.72,0.9 1.74,1.31 3.07,1.15 -0.15,-0.08 -0.31,-0.14 -0.46,-0.23 -2.69,-1.66 -3.58,-4.26 -3.53,-7.21 0.07,-3.6 1.36,-6.8 3.55,-9.65 2.2,-2.86 5.13,-3.6 8.53,-2.98 0.96,0.18 1.91,0.44 2.84,0.72 0.51,0.15 1.08,0.28 1.3,0.95 -0.45,0.64 -1.11,0.53 -1.72,0.44 -1.09,-0.16 -2.18,-0.37 -3.27,-0.56 -2.42,-0.41 -4.5,0.2 -6.05,2.15 -2.57,3.22 -3.99,6.81 -3.25,11.01 0.27,1.54 1.04,2.79 2.39,3.61 1.08,0.66 2.2,1.27 3.47,1.99 z"
       id="path48"
       style="stroke-width:0px" /><path
       class="uuid-8680bbd6-591e-444e-ac97-380dce32a29d"
       d="m 20.35,21.26 c -0.18,0.35 -0.37,0.7 -0.55,1.05 -1.7,3.19 -3.41,6.36 -4.38,9.88 -1.24,4.5 -1.41,8.96 0.26,13.4 0.08,0.21 0.08,0.45 0.15,0.8 -0.65,-0.24 -0.81,-0.7 -0.92,-1.12 -0.41,-1.6 -0.97,-3.19 -1.13,-4.82 -0.48,-4.81 0.51,-9.39 2.69,-13.69 0.79,-1.55 1.7,-3.04 2.59,-4.53 0.26,-0.43 0.67,-0.78 1,-1.17 0.1,0.07 0.2,0.14 0.3,0.21 z"
       id="path54"
       style="stroke-width:0px" /><path
       class="uuid-8680bbd6-591e-444e-ac97-380dce32a29d"
       d="m 40.09,9.95 c -0.53,0.04 -1.05,0.11 -1.58,0.12 -2.3,0.06 -4.58,0.26 -6.76,1.07 -1.98,0.73 -3.77,1.78 -5.31,3.21 -1.49,1.39 -2.9,2.86 -4.35,4.3 -0.11,0.11 -0.25,0.19 -0.54,0.4 0.03,-0.41 0.02,-0.64 0.08,-0.84 0.06,-0.2 0.18,-0.39 0.32,-0.54 2.82,-3.16 5.77,-6.13 9.93,-7.54 2.42,-0.82 4.91,-0.94 7.42,-0.77 0.17,0.01 0.34,0.05 0.5,0.1 0.11,0.04 0.21,0.13 0.31,0.2 0,0.1 -0.01,0.19 -0.02,0.29 z"
       id="path56"
       style="stroke-width:0px" /></g><g
     id="g631"
     transform="matrix(0.39038788,0,0,0.39038788,-592.49347,-79.380563)"
     style="stroke:#ffffff;stroke-opacity:1"><g
       id="g605"
       inkscape:label="g605"
       style="stroke:#ffffff;stroke-opacity:1"><path
         id="path569"
         style="fill:none;fill-opacity:1;stroke:#ffffff;stroke-width:9.68147;stroke-linecap:round;stroke-linejoin:round;stroke-dasharray:none;stroke-opacity:1"
         class="uuid-da8f2053-a715-4a57-b44f-39b87323d3a0"
         d="m 2058.7525,752.58408 c -1.9537,0.0324 -3.9073,0.0825 -5.859,0.17811 -0.3534,0.0177 -1.1258,0.0587 -1.6405,0.0901 -18.4321,1.05459 -36.6648,5.36268 -53.6428,12.60967 -0.2588,0.11823 -1.0455,0.45522 -1.507,0.65745 -24.5648,10.77765 -46.3256,27.82291 -62.7411,49.03304 -14.9252,19.17882 -25.422,41.78469 -30.3728,65.58124 -1.9643,9.38616 -3.0787,18.94749 -3.3442,28.53298 8e-4,0.24047 -0.02,1.13943 -0.029,1.6335 -0.096,5.70001 0.1128,11.40704 0.691,17.07934 0.033,0.26137 0.1242,1.13324 0.1795,1.62934 1.226,10.68772 3.7669,21.20497 7.3087,31.35657 0.1039,0.30238 0.3806,1.07512 0.5508,1.55779 1.0182,2.84003 2.1143,5.65211 3.2618,8.44243 0.1414,0.34714 0.4391,1.05266 0.6403,1.537 8.3427,19.7373 19.384,38.15296 29.14,57.19236 13.0699,25.3029 24.7626,51.4689 32.5564,78.9159 2.3188,8.1391 4.1918,16.4005 5.7558,24.7157 2.0083,8.6335 8.5414,16.0455 16.8587,19.1151 3.7329,1.4418 7.77,1.9215 11.7519,1.7748 35.9555,0 71.9113,0.013 107.8664,-0.018 9.02,-0.2142 17.7534,-5.2743 22.4072,-13.0076 2.0954,-3.3715 3.3136,-7.218 3.9046,-11.1266 4.6765,-24.3366 13.1231,-47.7891 23.1707,-70.3873 7.8262,-17.5997 16.7829,-34.6661 25.9792,-51.5808 1.7472,-3.2405 3.4835,-6.4746 5.1693,-9.6912 6.8429,-13.01631 13.3121,-26.30463 17.8991,-40.30579 0.1077,-0.3254 0.3493,-1.0858 0.5082,-1.57781 4.7555,-14.87725 7.1174,-30.53886 6.7018,-46.16225 -0.017,-0.85074 -0.034,-1.43542 -0.062,-2.27796 -0.3116,-9.34034 -1.461,-18.6504 -3.3968,-27.79264 -0.06,-0.29018 -0.2437,-1.11405 -0.3511,-1.60901 -4.462,-20.12162 -12.9015,-39.33482 -24.6171,-56.28649 -16.8941,-24.50875 -40.6622,-44.23431 -67.9192,-56.21681 -20.2315,-8.92665 -42.3249,-13.5864 -64.4377,-13.60248 -0.7939,-0.006 -1.5878,0.009 -2.3817,0.0101 z m 2.0001,8.41948 c 25.8666,-0.0451 51.7188,6.63765 74.2859,19.28936 23.2647,12.97407 43.041,32.12114 56.7497,54.962 12.2817,20.40479 19.6909,43.72541 21.3493,67.48839 0.9343,12.65111 0.2406,25.44846 -2.4317,37.86168 -3.5355,16.68984 -10.3695,32.46388 -18.1095,47.59353 -7.9,15.45078 -16.5559,30.50648 -24.2346,46.07278 -1.6465,3.2634 -3.2746,6.6484 -4.8777,9.9761 -0.1492,0.3283 -0.4849,1.0324 -0.7055,1.5046 -11.6708,24.6959 -21.6198,50.3653 -27.4328,77.1117 -0.6722,2.9633 -1.1567,5.9661 -1.8048,8.9331 -1.6634,6.3424 -6.8653,11.5988 -13.2046,13.2926 -3.7175,1.0336 -7.6062,0.5783 -11.41,0.6743 -34.5118,-0.013 -69.0242,0.014 -103.5354,-0.023 -7.2124,-0.2398 -14.0292,-5.0565 -16.6454,-11.7865 -0.9416,-2.2796 -1.2139,-4.75 -1.7144,-7.1465 -0.082,-0.4195 -0.2403,-1.1796 -0.3516,-1.7295 -1.7738,-8.5818 -3.9986,-17.0673 -6.5706,-25.4437 -0.173,-0.5431 -0.4336,-1.3909 -0.64,-2.0508 -0.2019,-0.6511 -0.551,-1.7321 -0.7607,-2.3834 -0.7272,-2.2407 -1.4761,-4.4743 -2.2487,-6.6997 -0.3652,-1.0523 -0.8138,-2.3347 -1.2245,-3.4707 -8.669,-24.1262 -19.845,-47.2642 -31.9198,-69.8499 -9.9587,-18.68783 -20.6417,-37.15748 -27.5974,-57.24293 -5.1532,-14.7249 -7.923,-30.32647 -7.6801,-45.94317 0.25,-25.56356 7.0823,-51.03464 19.713,-73.26519 14.2549,-25.2411 35.8252,-46.29068 61.4311,-59.88595 20.0275,-10.68415 42.4751,-16.79421 65.1578,-17.70307 2.1363,-0.0922 4.2748,-0.13129 6.413,-0.13623 z" /><path
         id="path571"
         style="fill:none;stroke:#ffffff;stroke-width:9.68147;stroke-linecap:round;stroke-linejoin:round;stroke-dasharray:none;stroke-opacity:1"
         class="uuid-da8f2053-a715-4a57-b44f-39b87323d3a0"
         d="m 2041.9916,813.4704 c -12.907,0.21544 -25.7101,3.58714 -37.1604,9.51786 -0.1975,0.11189 -0.9488,0.49668 -1.3597,0.72112 -7.6923,4.19789 -14.8198,9.47637 -20.9528,15.74323 -12.0122,12.40431 -19.5065,28.80678 -22.1294,45.79718 -0.4378,2.90082 -0.8052,5.8304 -0.8839,8.76047 0.4865,1.52816 2.1327,2.60065 3.7127,2.58702 0.6388,-0.0609 1.4223,-0.24756 1.8098,-0.76713 0.6688,-3.2874 1.4284,-6.56141 2.0402,-9.85724 l 0.3819,-4.43788 c 0.6561,0.56835 0.6341,-0.21021 0.7561,-0.71246 1.21,-5.2446 2.82,-10.41752 5.0487,-15.32197 2.5606,-5.36958 5.4257,-10.6334 9.1235,-15.31512 3.1088,-3.96995 6.7585,-7.48087 10.4924,-10.85518 2.6309,-2.39467 5.5089,-4.49448 8.5122,-6.39568 5.6893,-3.63586 11.7578,-6.76062 18.2357,-8.7264 4.4157,-1.38066 8.9507,-2.45297 13.5195,-3.12074 4.9693,-0.61962 9.996,-0.68797 14.9975,-0.47524 0.6259,0.0993 1.0959,0.059 1.4182,-0.50531 1.5639,-1.08627 2.3025,-3.57171 0.9187,-5.08431 -1.0834,-1.27868 -2.8392,-1.54201 -4.4223,-1.51919 -1.3519,-0.0561 -2.7059,-0.0432 -4.0586,-0.0331 z"
         sodipodi:nodetypes="sccccccccccccccccccccss" /><path
         id="path573"
         style="fill:none;stroke:#ffffff;stroke-width:8.55835;stroke-linecap:round;stroke-linejoin:round;stroke-dasharray:none;stroke-opacity:1"
         class="uuid-da8f2053-a715-4a57-b44f-39b87323d3a0"
         d="m 2030.8753,1271.157 c 6.8353,4.6614 15.6146,7.6903 24.7924,8.449 9.4041,0.8176 19.146,-0.6581 27.3314,-4.2539 2.8722,-1.2454 5.5624,-2.7307 7.9984,-4.4229 -20.1496,0 -40.2993,0 -60.4491,0 0.1084,0.076 0.2181,0.1519 0.3269,0.2278 z" /><path
         id="rect575"
         style="fill:none;stroke:#ffffff;stroke-width:7.65927;stroke-linecap:round;stroke-linejoin:round;stroke-dasharray:none;stroke-opacity:1"
         class="uuid-da8f2053-a715-4a57-b44f-39b87323d3a0"
         d="m 2119.2565,1186.8349 c -39.3809,0.01 -78.7627,-0.01 -118.1434,0.014 -2.9309,0.081 -5.4892,1.6673 -5.5321,3.4523 -0.2193,1.5718 1.313,3.2083 3.8167,3.7346 1.8154,0.422 3.7873,0.1824 5.6786,0.2444 38.4707,0 76.942,0.01 115.4128,-0.011 2.9139,-0.1056 5.4421,-1.6801 5.4817,-3.4595 0.2146,-1.5639 -1.305,-3.1951 -3.7941,-3.7226 -0.9281,-0.2153 -1.9314,-0.2897 -2.9202,-0.2529 z" /><path
         id="rect577"
         style="fill:none;stroke:#ffffff;stroke-width:7.9723;stroke-linecap:round;stroke-linejoin:round;stroke-dasharray:none;stroke-opacity:1"
         class="uuid-da8f2053-a715-4a57-b44f-39b87323d3a0"
         d="m 2119.1176,1228.9376 c -39.2866,0.01 -78.5743,-0.01 -117.861,0.015 -2.9205,0.087 -5.4643,1.8064 -5.5192,3.7404 -0.2187,1.6987 1.2813,3.4723 3.7639,4.0527 1.8196,0.477 3.8076,0.2086 5.7089,0.2773 38.3782,0 76.757,0.01 115.1352,-0.012 2.8741,-0.1141 5.3788,-1.7867 5.4635,-3.696 0.2421,-1.6828 -1.1963,-3.4525 -3.6343,-4.068 -0.9658,-0.2584 -2.0194,-0.3535 -3.057,-0.3104 z" /><path
         id="rect581"
         style="fill:none;stroke:#ffffff;stroke-width:9.68147;stroke-linecap:round;stroke-linejoin:round;stroke-dasharray:none;stroke-opacity:1"
         class="uuid-da8f2053-a715-4a57-b44f-39b87323d3a0"
         d="m 2060.4614,612.71082 c -1.0924,0.0805 -1.9156,1.21788 -1.6944,2.28871 -0.054,12.14281 -0.013,24.28603 -0.024,36.42903 0,16.81391 0,33.62841 0.015,50.44194 0.197,1.34052 1.8397,2.02393 2.9908,1.39151 1.0335,-0.42355 1.1079,-1.64219 1.0612,-2.59932 -0.032,-18.21289 0,-36.42686 -0.015,-54.64018 -0.013,-10.59216 0.015,-21.18666 -0.021,-31.77735 -0.2126,-1.04657 -1.2711,-1.71195 -2.3116,-1.53434 z" /><path
         id="path583"
         style="fill:none;stroke:#ffffff;stroke-width:9.68147;stroke-linecap:round;stroke-linejoin:round;stroke-dasharray:none;stroke-opacity:1"
         class="uuid-da8f2053-a715-4a57-b44f-39b87323d3a0"
         d="m 2208.1474,652.60781 c -1.1839,0.0585 -1.7033,1.25166 -2.2028,2.1443 -14.3911,24.73123 -28.7948,49.45591 -43.1618,74.20064 -0.4946,1.21848 0.5083,2.66103 1.807,2.7048 1.1056,0.16606 1.8483,-0.79291 2.2779,-1.67125 3.676,-6.38489 7.4131,-12.73693 11.1084,-19.11171 10.7733,-18.5133 21.5482,-37.02621 32.305,-55.54872 0.4245,-1.06633 -0.275,-2.3582 -1.3906,-2.62437 -0.2371,-0.0874 -0.4923,-0.11062 -0.7431,-0.0936 z" /><path
         id="path585"
         style="fill:none;stroke:#ffffff;stroke-width:9.68147;stroke-linecap:round;stroke-linejoin:round;stroke-dasharray:none;stroke-opacity:1"
         class="uuid-da8f2053-a715-4a57-b44f-39b87323d3a0"
         d="m 2315.9402,756.76228 c -1.1479,0.20582 -1.9867,1.1637 -2.9707,1.72738 -23.3744,15.89537 -46.7658,31.76744 -70.1181,47.69302 -0.9436,0.9093 -0.6304,2.60587 0.5139,3.20045 0.9222,0.62108 2.0001,0.0711 2.7609,-0.53344 7.3724,-5.04934 14.7809,-10.04984 22.1655,-15.0831 16.4243,-11.17195 32.8593,-22.3302 49.2719,-33.51814 0.951,-0.90015 0.6494,-2.58674 -0.4765,-3.20148 -0.3387,-0.21422 -0.747,-0.31706 -1.1469,-0.28469 z" /><path
         id="path587"
         style="fill:none;stroke:#ffffff;stroke-width:9.68147;stroke-linecap:round;stroke-linejoin:round;stroke-dasharray:none;stroke-opacity:1"
         class="uuid-da8f2053-a715-4a57-b44f-39b87323d3a0"
         d="m 2351.3268,901.0401 c -28.9475,1.71183 -57.8966,3.40494 -86.8423,5.14482 -1.2304,0.23148 -1.8966,1.7244 -1.3767,2.83495 0.3516,0.89007 1.3248,1.31861 2.239,1.17694 28.8888,-1.7217 57.7835,-3.39983 86.672,-5.13806 1.3204,-0.21768 1.9935,-1.89253 1.3132,-3.01325 -0.3696,-0.74572 -1.199,-1.11419 -2.0052,-1.0054 z" /><path
         id="path589"
         style="fill:none;stroke:#ffffff;stroke-width:9.68147;stroke-linecap:round;stroke-linejoin:round;stroke-dasharray:none;stroke-opacity:1"
         class="uuid-da8f2053-a715-4a57-b44f-39b87323d3a0"
         d="m 2240.8013,1013.4062 c -1.6034,0.022 -2.5752,2.1994 -1.4658,3.3916 0.6767,0.7196 1.7533,0.8396 2.5991,1.2982 26.1958,10.9877 52.3847,21.9954 78.592,32.9531 1.3552,0.3108 2.6518,-1.0515 2.3841,-2.3897 -0.1417,-1.3131 -1.5783,-1.6575 -2.5939,-2.0832 -26.3051,-11.033 -52.609,-22.0732 -78.9201,-33.0939 -0.194,-0.05 -0.3941,-0.087 -0.5954,-0.076 z" /><path
         id="path593"
         style="fill:none;stroke:#ffffff;stroke-width:9.68147;stroke-linecap:round;stroke-linejoin:round;stroke-dasharray:none;stroke-opacity:1"
         class="uuid-da8f2053-a715-4a57-b44f-39b87323d3a0"
         d="m 1913.1408,652.60224 c -1.2918,0.0518 -2.471,1.50197 -1.8461,2.75331 1.4288,2.61328 2.9944,5.15843 4.4722,7.74774 13.1825,22.63286 26.3286,45.28877 39.5437,67.90145 0.8746,1.04861 2.7016,0.79183 3.3107,-0.41266 0.7098,-1.10598 -0.2006,-2.2701 -0.7499,-3.21387 -12.3111,-21.12189 -24.5934,-42.26224 -36.9048,-63.38481 -2.095,-3.56924 -4.1432,-7.16994 -6.2673,-10.71953 -0.382,-0.4411 -0.9744,-0.70294 -1.5585,-0.67163 z" /><path
         id="path595"
         style="fill:none;stroke:#ffffff;stroke-width:9.68147;stroke-linecap:round;stroke-linejoin:round;stroke-dasharray:none;stroke-opacity:1"
         class="uuid-da8f2053-a715-4a57-b44f-39b87323d3a0"
         d="m 1805.2849,756.76413 c -1.5016,0.10264 -2.5221,2.15268 -1.436,3.32105 0.8419,0.8117 1.9273,1.3335 2.8594,2.04065 23.2297,15.79075 46.4533,31.59193 69.6969,47.36118 1.2658,0.60474 2.833,-0.47416 2.8424,-1.84789 0.1179,-1.33345 -1.2559,-1.94887 -2.1706,-2.58527 -23.5949,-16.02651 -47.1734,-32.08151 -70.7809,-48.08934 -0.3109,-0.15892 -0.664,-0.2198 -1.0112,-0.20038 z" /><path
         id="path597"
         style="fill:none;stroke:#ffffff;stroke-width:9.68147;stroke-linecap:round;stroke-linejoin:round;stroke-dasharray:none;stroke-opacity:1"
         class="uuid-da8f2053-a715-4a57-b44f-39b87323d3a0"
         d="m 1769.735,901.13472 c -1.4072,0.1048 -2.2104,1.89108 -1.4824,3.06129 0.384,0.79941 1.2741,1.0295 2.0892,1.02473 0.6063,0.0499 1.0204,0.0722 1.5003,0.0928 28.3463,1.66517 56.6794,3.34554 85.0264,4.99954 1.325,-0.0952 2.1645,-1.66573 1.6152,-2.85043 -0.3536,-1.06136 -1.5477,-1.28548 -2.5265,-1.27392 -8.764,-0.48607 -17.5266,-1.03465 -26.2902,-1.54143 -19.9774,-1.17428 -39.9492,-2.36517 -59.932,-3.51253 z" /><path
         id="path599"
         style="fill:none;stroke:#ffffff;stroke-width:9.68147;stroke-linecap:round;stroke-linejoin:round;stroke-dasharray:none;stroke-opacity:1"
         class="uuid-da8f2053-a715-4a57-b44f-39b87323d3a0"
         d="m 1880.6039,1013.3803 c -1.5874,0.3506 -2.9944,1.2461 -4.5268,1.7741 -25.5229,10.7109 -51.0524,21.4097 -76.566,32.1413 -0.9003,0.5487 -1.1356,1.8772 -0.6215,2.6903 0.4876,0.9684 1.7517,1.3501 2.7008,0.8302 26.7208,-11.2229 53.4532,-22.4273 80.1731,-33.6548 1.1043,-0.6268 1.2396,-2.3011 0.3345,-3.1647 -0.3819,-0.4017 -0.9348,-0.6532 -1.4941,-0.6164 z" /><path
         id="path2115"
         style="fill:none;fill-opacity:1;stroke:#ffffff;stroke-width:9.68147;stroke-linecap:round;stroke-linejoin:round;stroke-dasharray:none;stroke-opacity:1"
         d="m 2571.0083,626.68949 a 91.439703,91.439703 0 0 0 -91.4392,91.4393 91.439703,91.439703 0 0 0 42.245,76.39725 l -10.0528,167.78709 h 113.7644 l -8.8967,-165.53666 a 91.439703,91.439703 0 0 0 45.8185,-78.64768 91.439703,91.439703 0 0 0 -91.4392,-91.4393 z" /><path
         id="path2899"
         style="fill:none;fill-opacity:1;stroke:#ffffff;stroke-width:9.68147;stroke-linecap:round;stroke-linejoin:round;stroke-dasharray:none;stroke-opacity:1"
         d="m 2571.0083,626.68949 a 91.439703,91.439703 0 0 0 -91.4392,91.4393 91.439703,91.439703 0 0 0 42.245,76.39725 l -10.0528,167.78709 h 113.7644 l -8.8967,-165.53666 a 91.439703,91.439703 0 0 0 45.8185,-78.64768 91.439703,91.439703 0 0 0 -91.4392,-91.4393 z" /><path
         id="path2901"
         style="fill:none;fill-opacity:1;stroke:#ffffff;stroke-width:9.68147;stroke-linecap:round;stroke-linejoin:round;stroke-dasharray:none;stroke-opacity:1"
         d="m 2566.2484,621.68484 c -4.2389,0.26526 -8.4747,0.68569 -12.6478,1.4925 -3.7072,0.64461 -7.3561,1.58657 -10.9601,2.66195 -3.6165,1.13552 -7.1827,2.44137 -10.6475,3.98088 -3.7751,1.67007 -7.4457,3.57435 -10.9738,5.71807 -3.0312,1.80898 -5.9253,3.83745 -8.7465,5.95729 -2.9929,2.32649 -5.8815,4.79265 -8.5927,7.44329 -2.9846,2.90075 -5.778,5.9951 -8.3618,9.25787 -2.3619,2.96771 -4.5195,6.09537 -6.5285,9.31139 -2.1199,3.50148 -4.0814,7.10301 -5.7407,10.84689 -1.6806,3.62321 -3.0451,7.38461 -4.2676,11.18428 -0.886,2.93449 -1.6488,5.90111 -2.3001,8.89632 -0.8489,4.27435 -1.5014,8.59337 -1.7713,12.94559 -0.2062,2.66431 -0.2775,5.3432 -0.2265,8.01442 0.073,4.20243 0.4577,8.39351 1.067,12.55102 0.7006,4.48396 1.6752,8.92841 2.9972,13.2717 1.0958,3.71234 2.4581,7.34384 3.9894,10.89749 1.7003,3.84447 3.616,7.5938 5.7974,11.18828 1.971,3.29347 4.1654,6.45267 6.5156,9.48615 2.5959,3.30566 5.3794,6.46388 8.3788,9.4095 2.7302,2.69708 5.6336,5.21937 8.66,7.57842 1.5361,1.13395 3.0298,2.32762 4.6369,3.36178 -3.2923,54.95573 -6.5847,109.91145 -9.877,164.86718 0.3158,1.09636 0.6315,2.19271 0.9473,3.28907 0.9753,0.6411 1.9038,1.40268 2.9077,1.97043 2.1674,0.33453 4.3731,0.10066 6.5583,0.17019 36.1546,0 72.3091,0 108.4637,0 1.0755,-0.38086 2.151,-0.76172 3.2265,-1.14258 0.5817,-1.01234 1.2856,-1.98515 1.7929,-3.02157 0.2053,-2.17237 -0.1402,-4.35127 -0.1886,-6.52665 -2.816,-52.39538 -5.632,-104.79077 -8.448,-157.18615 3.3592,-2.05467 6.557,-4.36712 9.6394,-6.81487 3.2526,-2.64484 6.3601,-5.46868 9.2507,-8.50625 2.6493,-2.75764 5.1115,-5.69399 7.4208,-8.74103 2.5076,-3.36148 4.8192,-6.86849 6.874,-10.5252 1.8789,-3.32906 3.5575,-6.77304 5.0327,-10.29945 1.6052,-3.87467 2.9752,-7.8454 4.0694,-11.89461 0.9975,-3.69028 1.7762,-7.4414 2.3365,-11.22274 0.6058,-4.15012 0.9427,-8.33688 1.0135,-12.5303 0.047,-3.73685 -0.1627,-7.47473 -0.5353,-11.19242 -0.4686,-4.06768 -1.1177,-8.11871 -2.1002,-12.09586 -0.8249,-3.60137 -1.9339,-7.13126 -3.1666,-10.61247 -1.314,-3.55672 -2.8056,-7.05076 -4.5172,-10.43479 -1.8733,-3.71613 -3.9814,-7.31199 -6.3216,-10.75351 -2.1149,-3.148 -4.4536,-6.14201 -6.916,-9.02489 -2.3353,-2.64433 -4.7614,-5.21262 -7.3651,-7.59487 -3.0228,-2.8114 -6.2318,-5.41871 -9.5938,-7.81387 -3.0831,-2.20962 -6.3147,-4.2087 -9.6301,-6.04995 -3.6042,-1.94041 -7.2996,-3.71947 -11.1237,-5.18549 -3.428,-1.38086 -6.9605,-2.48588 -10.5223,-3.4654 -3.6714,-0.94817 -7.3898,-1.72939 -11.1461,-2.25392 -4.1209,-0.58187 -8.2766,-0.90977 -12.4385,-0.95418 -1.9732,-0.0652 -3.9474,0.0649 -5.9207,0.0911 z" /></g></g></svg>
