<?xml version="1.0" encoding="UTF-8" standalone="no"?>
<svg
   version="1.1"
   width="567"
   height="567"
   id="svg28"
   sodipodi:docname="tile-template.svg"
   inkscape:version="1.2.2 (732a01da63, 2022-12-09)"
   xmlns:inkscape="http://www.inkscape.org/namespaces/inkscape"
   xmlns:sodipodi="http://sodipodi.sourceforge.net/DTD/sodipodi-0.dtd"
   xmlns="http://www.w3.org/2000/svg"
   xmlns:svg="http://www.w3.org/2000/svg">
  <sodipodi:namedview
     id="namedview28"
     pagecolor="#ffffff"
     bordercolor="#000000"
     borderopacity="0.25"
     inkscape:showpageshadow="2"
     inkscape:pageopacity="0.0"
     inkscape:pagecheckerboard="0"
     inkscape:deskcolor="#d1d1d1"
     inkscape:zoom="1.4197531"
     inkscape:cx="7.0434782"
     inkscape:cy="235.25217"
     inkscape:window-width="2560"
     inkscape:window-height="1334"
     inkscape:window-x="-11"
     inkscape:window-y="-11"
     inkscape:window-maximized="1"
     inkscape:current-layer="g58"
     showgrid="false" />
  <defs
     id="defs1" />
  <path
     id="rect28"
     style="fill:none;stroke:#000000;stroke-width:2.26772;stroke-linecap:round;stroke-linejoin:round"
     d="M 24.566467,24.566467 H 542.43353 V 542.43353 H 24.566467 Z" />
  <g
     id="g58"
     transform="matrix(3.2372419,0,0,3.2372419,115.67953,146.99383)">
    <path
       class="uuid-3dd94540-de21-4cc6-a550-f92688b64dde"
       d="m 75.99,20.77 c -1.53,0.03 -3.07,0 -4.6,0 -16.1,0 -29.89,11.8 -32.47,27.73 -0.76,4.71 -0.58,9.32 1,13.85 2.5,7.18 7.56,11.46 14.89,13.09 6.01,1.34 11.94,0.69 17.74,-1.16 2.14,-0.68 4.24,-1.54 6.25,-2.55 5.46,-2.73 9.45,-6.95 11.8,-12.58 3.63,-8.7 3.77,-17.53 0.49,-26.39 -2.06,-5.56 -6.12,-8.96 -11.65,-10.77 -0.22,-0.07 -0.42,-0.22 -0.69,-0.38 0.1,-0.16 0.22,-0.28 0.33,-0.36 -0.64,-0.28 -1.28,-0.55 -1.94,-0.76 -0.29,0.4 -0.76,0.26 -1.15,0.26 z"
       id="path44"
       style="fill:#ffffff;stroke-width:0px"
       sodipodi:nodetypes="csccccccccccccc" />
    <path
       class="uuid-3dd94540-de21-4cc6-a550-f92688b64dde"
       d="M 49.7,23.82 C 49.62,22.93 49.58,22.03 49.47,21.15 49,17.3 47.43,13.97 44.59,11.29 41.27,8.16 37.35,7.36 32.99,8.38 c -3.26,0.76 -6.13,2.33 -8.61,4.54 -7.69,6.82 -11.81,15.35 -11.97,25.69 -0.04,2.7 0.52,5.33 1.51,7.85 2.11,5.39 6.1,8.59 11.69,9.81 3.08,0.67 6.18,0.55 9.23,-0.23 0.64,-0.16 1.23,-0.52 1.79,-0.76 0.09,-1.97 0.18,-3.79 0.27,-5.66 -0.91,-0.41 -1.79,-0.8 -2.65,-1.19 -1.35,1.07 -2.49,1.15 -4.03,0.25 -1.46,-0.85 -2.35,-2.19 -2.99,-3.71 -1.01,-2.37 -1.31,-4.84 -1.02,-7.38 0.44,-3.77 1.69,-7.21 4.4,-9.97 2.3,-2.35 5.1,-3.31 8.36,-2.72 0.64,0.12 1.26,0.49 1.8,0.87 0.24,0.17 0.44,0.69 0.35,0.96 -0.15,0.48 -0.62,0.27 -0.99,0.17 -0.7,-0.19 -1.38,-0.47 -2.09,-0.54 -2.53,-0.23 -4.68,0.62 -6.42,2.48 -2.08,2.22 -3.13,4.93 -3.67,7.87 -0.47,2.58 -0.29,5.1 0.75,7.51 0.38,0.88 0.93,1.72 1.54,2.47 0.72,0.9 1.74,1.31 3.07,1.15 C 33.16,47.76 33,47.7 32.85,47.61 30.16,45.95 29.27,43.35 29.32,40.4 c 0.07,-3.6 1.36,-6.8 3.55,-9.65 2.2,-2.86 5.13,-3.6 8.53,-2.98 0.96,0.18 1.91,0.44 2.84,0.72 0.51,0.15 1.08,0.28 1.3,0.95 -0.45,0.64 -1.11,0.53 -1.72,0.44 -1.09,-0.16 -2.18,-0.37 -3.27,-0.56 -2.42,-0.41 -4.5,0.2 -6.05,2.15 -2.57,3.22 -3.99,6.81 -3.25,11.01 0.27,1.54 1.04,2.79 2.39,3.61 1.08,0.66 2.2,1.27 3.47,1.99 0.31,-1.24 0.54,-2.23 0.8,-3.21 2.01,-7.52 6.38,-13.97 12.28,-18.55 0.15,-0.61 0.28,-1.22 0.35,-1.83 -0.11,0.09 -0.23,0.15 -0.33,0.16 -0.49,0.05 -0.49,-0.47 -0.53,-0.85 z M 19.79,22.31 c -1.7,3.19 -3.41,6.36 -4.38,9.88 -1.24,4.5 -1.41,8.96 0.26,13.4 0.08,0.21 0.08,0.45 0.15,0.8 -0.65,-0.24 -0.81,-0.7 -0.92,-1.12 -0.41,-1.6 -0.97,-3.19 -1.13,-4.82 -0.48,-4.81 0.51,-9.39 2.69,-13.69 0.79,-1.55 1.7,-3.04 2.59,-4.53 0.26,-0.43 0.67,-0.78 1,-1.17 0.1,0.07 0.2,0.14 0.3,0.21 -0.18,0.35 -0.37,0.7 -0.55,1.05 z M 40.09,9.94 c -0.53,0.04 -1.05,0.11 -1.58,0.12 -2.3,0.06 -4.58,0.26 -6.76,1.07 -1.98,0.73 -3.77,1.78 -5.31,3.21 -1.49,1.39 -2.9,2.86 -4.35,4.3 -0.11,0.11 -0.25,0.19 -0.54,0.4 0.03,-0.41 0.02,-0.64 0.08,-0.84 0.06,-0.2 0.18,-0.39 0.32,-0.54 2.82,-3.16 5.77,-6.13 9.93,-7.54 2.42,-0.82 4.91,-0.94 7.42,-0.77 0.17,0.01 0.34,0.05 0.5,0.1 0.11,0.04 0.21,0.13 0.31,0.2 0,0.1 -0.01,0.19 -0.02,0.29 z"
       id="path46"
       style="fill:#ffffff;stroke-width:0px" />
    <path
       class="uuid-8680bbd6-591e-444e-ac97-380dce32a29d"
       d="m 37.14,48.09 c 0.31,-1.24 0.54,-2.23 0.8,-3.21 3.37,-12.6 13.37,-22.21 26.1,-25.02 3.82,-0.84 7.66,-1.04 11.53,-0.31 0.76,0.15 1.02,0.26 1.65,0.83 -0.27,0.55 -0.8,0.38 -1.23,0.38 -1.53,0.03 -3.07,0 -4.6,0 -16.1,0 -29.89,11.8 -32.47,27.73 -0.76,4.71 -0.58,9.32 1,13.85 2.5,7.18 7.56,11.46 14.89,13.09 6.01,1.34 11.94,0.69 17.74,-1.16 2.14,-0.68 4.24,-1.54 6.25,-2.55 5.46,-2.73 9.45,-6.95 11.8,-12.58 3.63,-8.7 3.77,-17.53 0.49,-26.39 -2.06,-5.56 -6.12,-8.96 -11.65,-10.77 -0.22,-0.07 -0.42,-0.22 -0.69,-0.38 0.4,-0.62 0.9,-0.58 1.37,-0.39 1.56,0.66 3.16,1.26 4.64,2.08 3.33,1.84 5.56,4.68 7.09,8.12 1.89,4.26 2.77,8.74 2.88,13.38 0.11,4.91 -0.64,9.68 -2.45,14.24 -2.88,7.26 -8.04,12.3 -15.2,15.36 C 70.95,77 64.57,78.3 57.91,77.67 50.85,77 44.86,74.21 40.8,68.12 38.64,64.88 37.47,61.25 36.95,57.4 36.93,57.23 36.9,57.07 36.86,56.78 36.57,56.91 36.32,57 36.08,57.12 34.88,57.71 33.58,57.91 32.27,58.1 29,58.56 25.8,58.3 22.71,57.19 16.91,55.1 13.32,50.95 11.65,45.06 10.19,39.91 10.47,34.78 11.89,29.69 c 2.13,-7.6 6.16,-13.98 12.39,-18.88 2.57,-2.02 5.44,-3.46 8.67,-4.16 5.59,-1.21 10.26,0.39 14,4.66 2.46,2.8 3.81,6.13 4.21,9.82 0.1,0.91 -0.05,1.86 -0.21,2.77 -0.05,0.29 -0.45,0.7 -0.72,0.73 C 49.74,24.68 49.74,24.16 49.7,23.78 49.62,22.89 49.58,21.99 49.47,21.11 49,17.26 47.43,13.93 44.59,11.25 41.27,8.12 37.35,7.32 32.99,8.34 29.73,9.1 26.86,10.67 24.38,12.88 16.69,19.7 12.57,28.23 12.41,38.57 c -0.04,2.7 0.52,5.33 1.51,7.85 2.11,5.39 6.1,8.59 11.69,9.81 3.08,0.67 6.18,0.55 9.23,-0.23 0.64,-0.16 1.23,-0.52 1.79,-0.76 0.09,-1.97 0.18,-3.79 0.27,-5.66 -0.91,-0.41 -1.79,-0.8 -2.65,-1.19 -1.35,1.07 -2.49,1.15 -4.03,0.25 -1.46,-0.85 -2.35,-2.19 -2.99,-3.71 -1.01,-2.37 -1.31,-4.84 -1.02,-7.38 0.44,-3.77 1.69,-7.21 4.4,-9.97 2.3,-2.35 5.1,-3.31 8.36,-2.72 0.64,0.12 1.26,0.49 1.8,0.87 0.24,0.17 0.44,0.69 0.35,0.96 -0.15,0.48 -0.62,0.27 -0.99,0.17 -0.69,-0.19 -1.38,-0.47 -2.09,-0.54 -2.53,-0.23 -4.68,0.62 -6.42,2.48 -2.08,2.22 -3.13,4.93 -3.67,7.87 -0.47,2.58 -0.29,5.1 0.75,7.51 0.38,0.88 0.94,1.72 1.54,2.47 0.72,0.9 1.74,1.31 3.07,1.15 -0.15,-0.08 -0.31,-0.14 -0.46,-0.23 -2.69,-1.66 -3.58,-4.26 -3.53,-7.21 0.07,-3.6 1.36,-6.8 3.55,-9.65 2.2,-2.86 5.13,-3.6 8.53,-2.98 0.96,0.18 1.91,0.44 2.84,0.72 0.51,0.15 1.08,0.28 1.3,0.95 -0.45,0.64 -1.11,0.53 -1.72,0.44 -1.09,-0.16 -2.18,-0.37 -3.27,-0.56 -2.42,-0.41 -4.5,0.2 -6.05,2.15 -2.57,3.22 -3.99,6.81 -3.25,11.01 0.27,1.54 1.04,2.79 2.39,3.61 1.08,0.66 2.2,1.27 3.47,1.99 z"
       id="path48"
       style="stroke-width:0px" />
    <path
       class="uuid-8680bbd6-591e-444e-ac97-380dce32a29d"
       d="m 20.35,21.26 c -0.18,0.35 -0.37,0.7 -0.55,1.05 -1.7,3.19 -3.41,6.36 -4.38,9.88 -1.24,4.5 -1.41,8.96 0.26,13.4 0.08,0.21 0.08,0.45 0.15,0.8 -0.65,-0.24 -0.81,-0.7 -0.92,-1.12 -0.41,-1.6 -0.97,-3.19 -1.13,-4.82 -0.48,-4.81 0.51,-9.39 2.69,-13.69 0.79,-1.55 1.7,-3.04 2.59,-4.53 0.26,-0.43 0.67,-0.78 1,-1.17 0.1,0.07 0.2,0.14 0.3,0.21 z"
       id="path54"
       style="stroke-width:0px" />
    <path
       class="uuid-8680bbd6-591e-444e-ac97-380dce32a29d"
       d="m 40.09,9.95 c -0.53,0.04 -1.05,0.11 -1.58,0.12 -2.3,0.06 -4.58,0.26 -6.76,1.07 -1.98,0.73 -3.77,1.78 -5.31,3.21 -1.49,1.39 -2.9,2.86 -4.35,4.3 -0.11,0.11 -0.25,0.19 -0.54,0.4 0.03,-0.41 0.02,-0.64 0.08,-0.84 0.06,-0.2 0.18,-0.39 0.32,-0.54 2.82,-3.16 5.77,-6.13 9.93,-7.54 2.42,-0.82 4.91,-0.94 7.42,-0.77 0.17,0.01 0.34,0.05 0.5,0.1 0.11,0.04 0.21,0.13 0.31,0.2 0,0.1 -0.01,0.19 -0.02,0.29 z"
       id="path56"
       style="stroke-width:0px" />
  </g>
</svg>
